<svg version="1.1" id="Layer_1" xmlns="http://www.w3.org/2000/svg" xmlns:xlink="http://www.w3.org/1999/xlink" x="0px" y="0px"
	 width="100%" viewBox="0 0 496 357"  xml:space="preserve">
<path fill="#FFFFFF" opacity="1.000000" stroke="none" 
	d="
M457.000000,358.000000 
	C451.977905,358.000000 446.955811,358.000000 441.469360,357.574280 
	C440.975647,348.001099 433.480072,340.977478 424.926727,342.018860 
	C419.168274,342.720032 411.803314,348.372040 413.000000,358.000000 
	C410.958344,358.000000 408.916656,358.000000 406.402283,357.649994 
	C404.190277,354.692566 402.588379,351.975800 400.643524,349.531982 
	C399.873291,348.564178 398.340912,348.202972 397.155518,347.565552 
	C396.506592,349.125427 395.175690,350.778778 395.373596,352.222595 
	C395.648834,354.230652 397.069580,356.081726 398.000000,358.000000 
	C297.979095,358.000000 197.958206,358.000000 97.433121,357.649902 
	C92.301849,350.702240 87.716324,344.074921 83.029694,337.519928 
	C80.776772,334.368927 78.605194,333.350159 76.878838,338.085663 
	C76.582649,338.898102 75.392563,339.748993 74.489685,339.920624 
	C62.904240,342.122528 61.357918,349.789246 64.000000,358.000000 
	C43.015530,358.000000 22.031057,358.000000 1.023293,358.000000 
	C1.023293,239.103531 1.023293,120.207047 1.023293,1.000000 
	C58.020519,1.000000 115.041603,1.000000 172.565521,1.355773 
	C177.116013,7.942533 181.055069,14.249323 185.306015,20.338383 
	C186.123138,21.508862 188.164734,21.824497 189.641449,22.534487 
	C189.994812,20.873735 190.768188,19.161180 190.571716,17.568243 
	C190.407761,16.238834 189.115646,15.044247 188.308838,13.799236 
	C185.542618,9.530626 182.770096,5.266096 180.000000,1.000003 
	C285.666687,1.000000 391.333374,1.000000 497.000000,1.000000 
	C497.000000,15.430794 497.000000,29.746738 496.641449,44.496788 
	C493.804657,43.601692 491.422119,42.010765 488.807434,41.054691 
	C487.516998,40.582836 485.668427,40.989227 484.328918,41.579926 
	C483.683044,41.864746 483.027222,43.921276 483.401520,44.451565 
	C487.821899,50.713760 492.436493,56.838837 497.000000,63.000000 
	C497.000000,139.020889 497.000000,215.041794 496.623657,291.535126 
	C485.581207,294.981689 484.267365,302.264343 488.270782,312.093201 
	C475.524597,305.009674 472.373077,305.972504 465.522186,312.124878 
	C461.462524,315.770630 460.804199,324.365112 463.561249,328.876404 
	C467.185120,334.806061 473.822021,337.434540 480.636536,335.638794 
	C487.780640,333.756256 490.293762,328.676575 490.437561,315.727142 
	C492.651581,316.831329 494.825806,317.915649 497.000000,319.000000 
	C497.000000,331.914520 497.000000,344.829010 497.000000,358.000000 
	C487.980713,358.000000 478.959015,358.000000 469.471558,357.617035 
	C469.154663,356.593933 469.147369,355.856354 469.476593,355.328735 
	C472.796051,350.008972 472.868713,344.932037 469.464630,340.144836 
	C466.583374,336.092926 463.731232,332.000793 460.549744,328.190735 
	C459.101501,326.456329 456.889557,325.359558 454.997925,323.667664 
	C454.381836,322.577209 453.791901,321.792664 453.122437,320.544983 
	C453.032043,248.378433 453.020447,176.674942 453.018036,104.971458 
	C453.018005,103.977623 453.133606,102.983795 453.476013,101.825089 
	C455.681946,100.097450 457.751495,98.680321 459.503357,96.942871 
	C463.671661,92.808830 464.021301,88.044830 459.944031,82.326691 
	C459.145081,85.135818 458.340912,87.122749 458.049408,89.182251 
	C457.594452,92.396561 456.899567,95.148224 452.632965,95.053482 
	C452.417419,95.023743 451.999054,94.904137 451.686279,94.640610 
	C447.255798,94.236008 443.138092,94.094925 439.012604,93.571732 
	C436.216949,87.059830 433.141846,80.896667 441.399689,75.955002 
	C444.527252,75.881416 447.265350,75.970116 449.984253,75.781532 
	C451.172455,75.699127 452.321320,75.049332 453.488037,74.657196 
	C452.917053,73.588516 452.620056,72.076836 451.728973,71.525703 
	C447.186188,68.715942 442.911591,69.647522 438.641541,73.031464 
	C437.291779,73.868111 436.092010,74.511276 435.328033,75.493446 
	C430.777069,81.344086 431.255554,87.611885 433.613892,94.024902 
	C431.859619,94.028488 430.511475,94.020042 429.157715,93.546265 
	C429.200989,88.727432 429.249817,84.373924 429.508545,79.818878 
	C429.582825,78.738075 429.447205,77.858818 429.255615,76.521233 
	C429.231232,72.052567 429.262787,68.042221 429.450195,63.902405 
	C429.398712,63.520172 429.191406,63.267422 428.519775,62.952404 
	C427.057617,62.867119 426.059784,62.823944 425.061951,62.823952 
	C330.542511,62.824764 236.023071,62.830807 141.503632,62.820595 
	C139.349625,62.820362 137.195663,62.638607 135.032028,62.200005 
	C130.393433,54.684155 125.805916,47.482544 121.109367,40.352745 
	C119.764343,38.310867 117.182182,36.947475 116.112617,39.722752 
	C114.620384,43.594814 111.412079,43.621639 108.650558,45.126591 
	C106.240471,46.440022 103.500000,48.702396 102.740402,51.121632 
	C101.624741,54.674915 102.143074,58.741249 101.567795,62.682621 
	C99.813110,62.721485 98.455879,62.666729 96.981567,62.277248 
	C92.394875,59.385635 88.031921,58.815868 83.447525,62.706688 
	C78.102943,62.794991 73.213539,62.905018 68.329086,62.795204 
	C66.006157,62.742977 64.514221,63.241619 64.322014,65.934265 
	C62.664932,66.891045 60.183205,68.477417 60.282310,68.659569 
	C61.514526,70.924278 63.121880,72.984871 64.696304,75.555527 
	C64.720032,81.999184 64.680229,87.985275 64.254234,93.974075 
	C60.624031,92.898788 57.376034,91.832603 54.137157,90.739395 
	C51.036636,89.692871 47.404991,88.753822 45.819500,92.229904 
	C44.885036,94.278648 45.334427,98.901306 46.727215,99.727829 
	C52.338726,103.057831 58.559868,105.360527 64.663620,108.443161 
	C64.726448,110.219650 64.681458,111.595657 64.286873,112.960007 
	C63.262447,112.555733 62.452263,112.292213 61.934715,111.749580 
	C58.548046,108.198814 55.625568,107.944710 51.632130,110.835060 
	C47.884308,113.547638 44.081493,116.184364 40.297745,118.847168 
	C34.894619,122.649605 34.199432,128.072586 38.620716,134.169220 
	C42.168549,131.859573 45.811302,129.634659 49.296112,127.185036 
	C54.467548,123.549820 59.527134,119.755478 64.720718,116.487900 
	C64.817612,176.030289 64.818871,235.113647 64.877045,294.196960 
	C64.879082,296.266266 65.447594,298.335022 65.950249,300.574860 
	C66.468964,300.668427 66.789505,300.591125 67.568649,300.554596 
	C77.323639,300.691895 86.620026,300.788483 96.002487,301.114075 
	C96.254753,301.637299 96.491364,301.854919 96.875854,302.458801 
	C96.908813,309.286957 96.864311,315.652191 96.604034,322.196777 
	C96.242165,322.909637 96.096062,323.443176 95.583725,323.984985 
	C89.252159,326.356720 87.700974,329.260803 87.998955,337.507568 
	C88.196686,342.979919 92.812263,348.564270 98.361130,350.044647 
	C104.650795,351.722656 110.507797,349.364594 113.916771,344.361908 
	C117.155403,339.609161 118.013733,334.812897 115.463203,329.227997 
	C117.459221,329.937347 119.089828,330.695618 120.329056,331.867706 
	C124.763611,336.062103 136.949707,332.149139 137.511261,326.024902 
	C239.661514,326.008728 341.346008,326.001312 442.986237,326.343811 
	C441.988617,327.789429 441.026398,328.877533 440.083313,329.981995 
	C434.585999,336.419983 436.455688,346.802673 444.662201,351.916718 
	C449.838898,355.142670 457.673309,355.813904 462.404510,347.245941 
	C462.831177,346.473267 463.553009,345.863525 464.316742,344.968323 
	C466.948486,348.193054 466.375061,350.797363 463.782776,353.006531 
	C461.651337,354.822937 459.270355,356.346588 457.000000,358.000000 
M165.611496,5.082964 
	C163.721497,6.565569 162.046494,8.630951 159.901474,9.422350 
	C153.260666,11.872463 150.834778,14.760373 151.069016,22.016476 
	C151.168121,25.086571 152.080017,28.130428 152.690643,31.570164 
	C141.964371,22.891651 140.022385,23.383053 131.136124,28.611679 
	C126.931137,31.085871 124.904007,38.321926 126.479347,42.876381 
	C129.306854,51.050907 134.153168,55.046463 141.984360,53.861946 
	C153.598068,52.105305 156.473328,44.035427 153.996857,32.733616 
	C155.514328,33.551033 156.096146,33.789028 156.594482,34.144176 
	C164.249741,39.599915 170.488144,38.489006 176.005707,30.739166 
	C176.511337,30.028980 177.310349,29.350103 178.117722,29.062122 
	C182.279388,27.577732 183.164932,25.208269 180.637512,21.422335 
	C178.154022,17.702192 175.696823,13.931189 172.841263,10.504911 
	C171.059265,8.366789 168.560501,6.826048 165.611496,5.082964 
M26.276789,139.540802 
	C32.088490,140.261673 34.036240,138.758835 33.952812,133.071533 
	C33.894840,129.119232 33.366562,125.171532 32.997051,121.226578 
	C31.965651,110.215164 30.922224,99.204803 29.837948,88.198517 
	C29.725683,87.058960 29.185795,85.963852 29.051796,84.823730 
	C28.330515,78.686844 26.245760,76.365654 21.942272,77.026657 
	C18.155624,77.608276 16.448431,81.171158 17.055916,86.446861 
	C18.772789,101.357086 20.228577,116.299057 22.127806,131.185074 
	C22.476727,133.919876 24.424402,136.450714 26.276789,139.540802 
M459.951752,59.664165 
	C456.375549,64.353592 458.092438,69.087608 460.134094,73.608467 
	C462.551422,78.961243 466.635742,82.933434 472.532776,83.877472 
	C478.265167,84.795166 483.351166,82.718353 486.971710,78.002014 
	C492.697876,70.542740 490.255585,60.526722 482.952484,54.681614 
	C475.548401,48.755661 466.636261,50.611134 459.951752,59.664165 
M43.860691,91.957008 
	C43.904636,91.130844 44.076252,90.288025 43.970943,89.481339 
	C43.450127,85.491653 41.036777,83.681824 37.129612,84.051643 
	C33.011559,84.441422 32.444805,87.595627 33.164169,90.628143 
	C33.584316,92.399284 35.470360,95.022171 36.821762,95.100227 
	C39.013527,95.226822 41.307880,93.577225 43.860691,91.957008 
z"/>
<path fill="#F1F1F1" opacity="1.000000" stroke="none" 
	d="
M497.000000,318.555847 
	C494.825806,317.915649 492.651581,316.831329 490.437561,315.727142 
	C490.293762,328.676575 487.780640,333.756256 480.636536,335.638794 
	C473.822021,337.434540 467.185120,334.806061 463.561249,328.876404 
	C460.804199,324.365112 461.462524,315.770630 465.522186,312.124878 
	C472.373077,305.972504 475.524597,305.009674 488.270782,312.093201 
	C484.267365,302.264343 485.581207,294.981689 496.623657,292.003784 
	C497.000000,293.714355 497.000000,295.428711 496.644379,297.606262 
	C494.923126,300.068146 492.448242,302.076050 492.464783,304.063171 
	C492.486908,306.714050 492.669373,310.579926 497.000000,311.000000 
	C497.000000,313.370575 497.000000,315.741119 497.000000,318.555847 
M479.844421,329.879639 
	C481.360016,327.973450 483.344452,326.273804 484.294037,324.118286 
	C486.299622,319.565704 482.562653,317.023987 479.820465,314.634521 
	C477.233673,312.380463 474.210907,312.128937 471.390076,315.029846 
	C468.755707,317.739044 466.747986,320.858856 468.467651,324.361389 
	C470.462402,328.424194 473.992889,330.976501 479.844421,329.879639 
z"/>
<path fill="#F1F1F1" opacity="1.000000" stroke="none" 
	d="
M457.460632,358.000000 
	C459.270355,356.346588 461.651337,354.822937 463.782776,353.006531 
	C466.375061,350.797363 466.948486,348.193054 464.316742,344.968323 
	C463.553009,345.863525 462.831177,346.473267 462.404510,347.245941 
	C457.673309,355.813904 449.838898,355.142670 444.662201,351.916718 
	C436.455688,346.802673 434.585999,336.419983 440.083313,329.981995 
	C441.026398,328.877533 441.988617,327.789429 443.432678,326.345520 
	C447.623627,325.322723 451.323822,324.648132 455.024048,323.973572 
	C456.889557,325.359558 459.101501,326.456329 460.549744,328.190735 
	C463.731232,332.000793 466.583374,336.092926 469.464630,340.144836 
	C472.868713,344.932037 472.796051,350.008972 469.476593,355.328735 
	C469.147369,355.856354 469.154663,356.593933 469.002869,357.617035 
	C465.307098,358.000000 461.614166,358.000000 457.460632,358.000000 
M443.423126,340.768707 
	C444.427063,342.248779 445.284119,343.860168 446.465668,345.181396 
	C448.886230,347.888214 452.094299,349.369476 455.252441,347.151703 
	C457.310242,345.706635 459.311829,343.103424 459.782837,340.712555 
	C460.632080,336.402008 455.451508,331.097900 451.191528,331.003418 
	C446.084961,330.890167 443.256775,334.071747 443.423126,340.768707 
z"/>
<path fill="#F1F1F1" opacity="1.000000" stroke="none" 
	d="
M64.428467,358.000000 
	C61.357918,349.789246 62.904240,342.122528 74.489685,339.920624 
	C75.392563,339.748993 76.582649,338.898102 76.878838,338.085663 
	C78.605194,333.350159 80.776772,334.368927 83.029694,337.519928 
	C87.716324,344.074921 92.301849,350.702240 96.964462,357.649902 
	C93.638710,358.000000 90.277428,358.000000 86.454681,357.582245 
	C85.958351,355.849365 86.230934,354.431458 85.832024,353.238037 
	C84.538284,349.367523 82.382637,346.072906 78.102623,345.064026 
	C74.674469,344.255951 71.331284,345.533447 70.240990,348.607208 
	C69.245552,351.413544 70.010742,354.844391 70.000000,358.000000 
	C68.285645,358.000000 66.571281,358.000000 64.428467,358.000000 
z"/>
<path fill="#F1F1F1" opacity="1.000000" stroke="none" 
	d="
M413.428467,358.000000 
	C411.803314,348.372040 419.168274,342.720032 424.926727,342.018860 
	C433.480072,340.977478 440.975647,348.001099 441.002502,357.574280 
	C439.285645,358.000000 437.571289,358.000000 435.428467,357.597290 
	C434.635254,351.398590 431.374542,348.029541 426.107941,348.007111 
	C421.577057,347.987823 419.122314,351.438904 419.000000,358.000000 
	C417.285645,358.000000 415.571289,358.000000 413.428467,358.000000 
z"/>
<path fill="#FEFEFE" opacity="1.000000" stroke="none" 
	d="
M70.466858,358.000000 
	C70.010742,354.844391 69.245552,351.413544 70.240990,348.607208 
	C71.331284,345.533447 74.674469,344.255951 78.102623,345.064026 
	C82.382637,346.072906 84.538284,349.367523 85.832024,353.238037 
	C86.230934,354.431458 85.958351,355.849365 85.996613,357.582245 
	C80.977905,358.000000 75.955818,358.000000 70.466858,358.000000 
z"/>
<path fill="#F1F1F1" opacity="1.000000" stroke="none" 
	d="
M497.000000,62.532059 
	C492.436493,56.838837 487.821899,50.713760 483.401520,44.451565 
	C483.027222,43.921276 483.683044,41.864746 484.328918,41.579926 
	C485.668427,40.989227 487.516998,40.582836 488.807434,41.054691 
	C491.422119,42.010765 493.804657,43.601692 496.641449,44.965446 
	C497.000000,50.688042 497.000000,56.376080 497.000000,62.532059 
z"/>
<path fill="#F1F1F1" opacity="1.000000" stroke="none" 
	d="
M179.562500,1.000003 
	C182.770096,5.266096 185.542618,9.530626 188.308838,13.799236 
	C189.115646,15.044247 190.407761,16.238834 190.571716,17.568243 
	C190.768188,19.161180 189.994812,20.873735 189.641449,22.534487 
	C188.164734,21.824497 186.123138,21.508862 185.306015,20.338383 
	C181.055069,14.249323 177.116013,7.942533 173.034180,1.355773 
	C175.041672,1.000000 177.083328,1.000000 179.562500,1.000003 
z"/>
<path fill="#FEFEFE" opacity="1.000000" stroke="none" 
	d="
M419.466858,358.000000 
	C419.122314,351.438904 421.577057,347.987823 426.107941,348.007111 
	C431.374542,348.029541 434.635254,351.398590 435.000000,357.597290 
	C429.977905,358.000000 424.955811,358.000000 419.466858,358.000000 
z"/>
<path fill="#F1F1F1" opacity="1.000000" stroke="none" 
	d="
M398.444153,358.000000 
	C397.069580,356.081726 395.648834,354.230652 395.373596,352.222595 
	C395.175690,350.778778 396.506592,349.125427 397.155518,347.565552 
	C398.340912,348.202972 399.873291,348.564178 400.643524,349.531982 
	C402.588379,351.975800 404.190277,354.692566 405.964783,357.649994 
	C403.629425,358.000000 401.258881,358.000000 398.444153,358.000000 
z"/>
<path fill="#FEFEFE" opacity="1.000000" stroke="none" 
	d="
M497.000000,310.536804 
	C492.669373,310.579926 492.486908,306.714050 492.464783,304.063171 
	C492.448242,302.076050 494.923126,300.068146 496.644379,298.034729 
	C497.000000,302.024536 497.000000,306.049103 497.000000,310.536804 
z"/>
<path fill="#39B138" opacity="1.000000" stroke="none" 
	d="
M451.999054,94.904129 
	C451.999054,94.904137 452.417419,95.023743 452.674561,95.483299 
	C453.019562,97.958557 453.107422,99.974258 453.195251,101.989960 
	C453.133606,102.983795 453.018005,103.977623 453.018036,104.971458 
	C453.020447,176.674942 453.032043,248.378433 453.027161,320.967285 
	C451.337189,322.557007 449.663574,323.876129 447.988739,323.877747 
	C347.517029,323.974945 247.045242,323.966156 146.573456,323.960358 
	C130.079315,323.959412 113.585182,323.926727 97.080353,323.928375 
	C97.069656,323.948059 97.101440,323.924042 97.084122,323.601318 
	C96.984467,322.858215 96.902138,322.437836 96.819809,322.017456 
	C96.864311,315.652191 96.908813,309.286957 96.953194,302.238708 
	C96.953072,301.555695 96.901260,301.091980 96.918884,300.633972 
	C97.049042,297.441406 97.161575,294.706848 97.507462,291.634827 
	C97.828125,289.475464 97.991364,287.653595 97.991753,285.831696 
	C98.005013,224.704819 98.002205,163.577957 98.003540,102.451080 
	C98.003677,96.008400 98.008797,96.003548 104.510353,96.003479 
	C207.943008,96.002449 311.375671,96.008232 414.808289,95.963570 
	C416.881714,95.962669 418.954895,95.376244 421.473450,95.043961 
	C424.003754,94.992363 426.088806,94.959793 428.630310,94.944183 
	C436.724182,94.942139 444.361603,94.923134 451.999054,94.904129 
M295.672943,161.856339 
	C295.672943,161.856339 295.414276,161.779846 295.414276,161.779846 
	C295.414276,161.779846 295.261871,162.001923 294.512848,161.592911 
	C293.677917,161.473236 292.842957,161.353561 291.509155,161.046509 
	C291.336700,161.089142 291.164276,161.131790 290.168915,161.040634 
	C288.782898,161.083160 287.396881,161.125687 285.495178,161.036652 
	C285.328186,161.096527 285.161194,161.156403 284.265320,161.145737 
	C282.845795,161.498016 281.426239,161.850311 279.453522,162.108536 
	C279.172424,162.332825 278.891327,162.557098 278.059723,162.861298 
	C277.709106,162.980927 277.358459,163.100555 276.462891,163.142319 
	C276.185120,163.359467 275.907318,163.576599 275.274902,163.823517 
	C275.274902,163.823517 275.002838,164.052948 274.435028,164.048264 
	C274.180695,164.309540 273.926392,164.570816 273.018402,164.994919 
	C271.000153,166.686447 268.756226,168.173157 267.002899,170.105103 
	C259.568512,178.296906 257.532928,188.467865 256.656403,199.060608 
	C255.510223,212.912292 255.732971,226.647537 260.462036,239.909393 
	C265.627777,254.396057 276.345520,261.610535 291.547638,259.791595 
	C296.897308,259.151459 301.925201,255.821823 307.021881,253.751953 
	C307.021881,255.263565 307.040680,257.581940 307.018738,259.899902 
	C306.899750,272.468475 299.758606,278.375519 287.548523,275.296417 
	C281.927002,273.878784 276.648041,271.102661 270.893097,268.815094 
	C269.282501,272.088684 267.372284,275.946594 265.483887,279.815186 
	C262.559265,285.806641 262.470215,286.058044 268.351868,289.403687 
	C281.798676,297.052551 296.057159,298.365082 310.607330,293.351898 
	C320.335144,290.000244 327.490295,283.614716 330.631012,272.633972 
	C331.013519,270.426453 331.396057,268.218933 331.939423,265.266296 
	C331.934784,264.505920 331.930176,263.745575 332.244415,262.423279 
	C332.214020,261.585815 332.183624,260.748322 332.486237,259.046387 
	C332.443542,235.326538 332.400848,211.606705 332.661591,187.143295 
	C332.705963,180.189758 332.644440,173.233185 332.843414,166.284073 
	C332.931061,163.222366 331.823700,162.162888 328.792236,162.329224 
	C324.995422,162.537582 321.177521,162.362503 317.368744,162.352341 
	C309.623993,162.331680 309.623993,162.331528 308.416199,169.683014 
	C307.216217,168.726822 306.118286,167.851974 305.000000,167.000610 
	C305.000000,167.000610 305.025146,166.981277 304.876404,166.493393 
	C304.581482,166.369736 304.286560,166.246078 303.590515,165.732101 
	C303.108429,165.464661 302.626312,165.197220 301.944031,164.436264 
	C301.628510,164.312363 301.312958,164.188461 300.778412,163.811554 
	C300.778412,163.811554 300.450775,163.743347 300.110992,163.272385 
	C299.739075,163.225998 299.367188,163.179626 298.559814,162.964783 
	C298.559814,162.964783 298.093201,162.948013 297.722717,162.450775 
	C297.135101,162.344360 296.547485,162.237961 295.888824,162.025101 
	C295.888824,162.025101 295.788239,162.104233 295.672943,161.856339 
M398.219086,258.941742 
	C406.327026,256.522034 413.135468,252.201981 417.317078,244.686920 
	C428.329529,224.895569 427.659271,204.162109 420.665619,183.544312 
	C415.773132,169.120865 403.307312,161.454178 388.561798,160.924210 
	C368.131165,160.189926 357.786957,169.989059 352.317596,182.720001 
	C346.000244,197.424667 346.316498,212.868271 349.045990,228.269379 
	C353.360718,252.614868 373.522888,265.316528 398.219086,258.941742 
M167.536697,227.841171 
	C169.157410,236.528061 172.533646,244.410492 178.913330,250.649460 
	C187.505508,259.052094 198.059052,261.117188 209.729462,260.075592 
	C223.887344,258.811920 233.668671,251.702393 239.159973,238.852692 
	C245.537872,223.928360 245.035263,208.374023 242.287109,192.781326 
	C240.494781,182.611801 235.908234,173.818512 227.551544,167.571457 
	C205.683105,151.223709 174.132416,163.610245 168.118744,190.812073 
	C165.467163,202.806061 165.498688,214.903610 167.536697,227.841171 
M139.471863,258.851898 
	C142.887207,258.851898 146.302551,258.851898 149.576752,258.851898 
	C149.576752,212.995285 149.576752,167.992386 149.576752,122.669617 
	C142.856583,122.669617 136.520477,123.005722 130.239670,122.560997 
	C125.401703,122.218437 124.518471,124.095482 124.534142,128.485229 
	C124.682091,169.922913 124.622429,211.361328 124.622635,252.799545 
	C124.622650,254.591599 124.622643,256.383636 124.622643,258.851807 
	C129.603928,258.851807 134.044022,258.851807 139.471863,258.851898 
z"/>
<path fill="#3CAE3B" opacity="1.000000" stroke="none" 
	d="
M428.173859,94.927231 
	C426.088806,94.959793 424.003754,94.992363 421.452332,95.010551 
	C420.985931,94.996170 420.935333,94.935448 420.948608,94.687881 
	C420.961884,94.440315 420.807465,93.969116 420.884430,93.508209 
	C420.909271,86.035011 420.857117,79.022720 420.838501,71.753342 
	C420.578522,71.397232 420.285004,71.298203 419.528748,71.124680 
	C325.205170,71.038986 231.344360,71.027359 137.483536,71.023438 
	C136.654816,71.023407 135.826096,71.126808 134.536423,71.093369 
	C127.055923,71.062584 120.036385,71.120331 112.583038,71.114616 
	C110.107498,71.088760 108.065758,71.126358 105.584213,71.080513 
	C102.762405,71.053909 100.380409,71.110756 97.537766,71.103401 
	C92.719490,71.081703 88.361847,71.124207 83.565933,71.082123 
	C80.751099,71.055595 78.374542,71.113647 75.665421,71.115181 
	C74.893600,71.131256 74.454338,71.203865 73.784683,71.251884 
	C73.554291,71.227303 73.237083,71.564148 73.237083,71.564148 
	C73.237083,71.564148 73.379021,72.004585 73.290253,72.445297 
	C73.277557,75.571098 73.353638,78.256195 73.306854,81.381416 
	C73.241905,85.461449 73.299820,89.101357 73.294739,93.195953 
	C73.297325,96.074028 73.362907,98.497414 73.303665,101.297043 
	C73.245522,104.466202 73.312202,107.259125 73.290108,110.509102 
	C73.189163,169.797668 73.176132,228.629166 73.173416,287.460663 
	C73.173378,288.288574 73.302528,289.116455 73.274834,290.271790 
	C73.794701,291.004089 74.411118,291.408936 75.488785,291.883057 
	C81.304100,291.909454 86.658157,291.866577 92.393814,291.922607 
	C93.826241,292.052856 94.877075,292.084137 95.992882,292.539185 
	C95.962440,295.450531 95.867012,297.938141 95.716095,300.569489 
	C95.660606,300.713226 95.916420,300.885071 95.916420,300.885071 
	C86.620026,300.788483 77.323639,300.691895 67.369003,300.392212 
	C66.391197,300.260742 66.071640,300.332397 65.752075,300.404022 
	C65.447594,298.335022 64.879082,296.266266 64.877045,294.196960 
	C64.818871,235.113647 64.817612,176.030289 64.828308,116.113205 
	C64.778511,114.510208 64.707489,113.740944 64.636475,112.971672 
	C64.681458,111.595657 64.726448,110.219650 64.777176,107.987755 
	C64.735428,102.745033 64.687927,98.358200 64.640427,93.971359 
	C64.680229,87.985275 64.720032,81.999184 64.827461,75.111374 
	C64.828949,71.443535 64.762817,68.677437 64.696678,65.911331 
	C64.514221,63.241619 66.006157,62.742977 68.329086,62.795204 
	C73.213539,62.905018 78.102943,62.794991 83.903397,62.833210 
	C88.910545,62.798141 93.004601,62.705059 97.098656,62.611977 
	C98.455879,62.666729 99.813110,62.721485 101.991714,62.788788 
	C104.548981,62.716019 106.284851,62.630711 108.476311,62.647167 
	C113.947243,62.679554 118.962593,62.610172 124.424500,62.658417 
	C128.261261,62.697872 131.651474,62.619698 135.041672,62.541527 
	C137.195663,62.638607 139.349625,62.820362 141.503632,62.820595 
	C236.023071,62.830807 330.542511,62.824764 425.061951,62.823952 
	C426.059784,62.823944 427.057617,62.867119 428.542084,63.223526 
	C429.117279,63.715237 429.205841,63.873562 429.294373,64.031883 
	C429.262787,68.042221 429.231232,72.052567 429.134613,76.891693 
	C429.145905,78.487129 429.222290,79.253777 429.298645,80.020416 
	C429.249817,84.373924 429.200989,88.727432 428.898438,93.574646 
	C428.487732,94.354645 428.330811,94.640938 428.173859,94.927231 
z"/>
<path fill="#F1F1F1" opacity="1.000000" stroke="none" 
	d="
M165.997437,5.050096 
	C168.560501,6.826048 171.059265,8.366789 172.841263,10.504911 
	C175.696823,13.931189 178.154022,17.702192 180.637512,21.422335 
	C183.164932,25.208269 182.279388,27.577732 178.117722,29.062122 
	C177.310349,29.350103 176.511337,30.028980 176.005707,30.739166 
	C170.488144,38.489006 164.249741,39.599915 156.594482,34.144176 
	C156.096146,33.789028 155.514328,33.551033 153.996857,32.733616 
	C156.473328,44.035427 153.598068,52.105305 141.984360,53.861946 
	C134.153168,55.046463 129.306854,51.050907 126.479347,42.876381 
	C124.904007,38.321926 126.931137,31.085871 131.136124,28.611679 
	C140.022385,23.383053 141.964371,22.891651 152.690643,31.570164 
	C152.080017,28.130428 151.168121,25.086571 151.069016,22.016476 
	C150.834778,14.760373 153.260666,11.872463 159.901474,9.422350 
	C162.046494,8.630951 163.721497,6.565569 165.997437,5.050096 
M134.237411,33.743481 
	C133.696609,34.770004 133.046143,35.754696 132.635605,36.830906 
	C131.409988,40.043716 134.321716,46.286572 137.627930,47.683830 
	C141.425797,49.288876 145.833893,47.716339 147.948563,44.115471 
	C150.675522,39.472019 147.863495,35.986774 145.148300,33.000225 
	C141.978943,29.514122 138.209793,30.987202 134.237411,33.743481 
M160.579941,29.082125 
	C164.999146,32.137238 168.710892,31.681053 171.755219,27.708632 
	C174.101486,24.647127 173.057999,19.676453 169.448227,16.719179 
	C165.097488,13.154875 161.932785,13.217928 158.575134,16.935814 
	C155.834732,19.970221 156.332855,23.948551 160.579941,29.082125 
z"/>
<path fill="#F0F0F0" opacity="0.000000" stroke="none" 
	d="
M25.955454,139.308258 
	C24.424402,136.450714 22.476727,133.919876 22.127806,131.185074 
	C20.228577,116.299057 18.772789,101.357086 17.055916,86.446861 
	C16.448431,81.171158 18.155624,77.608276 21.942272,77.026657 
	C26.245760,76.365654 28.330515,78.686844 29.051796,84.823730 
	C29.185795,85.963852 29.725683,87.058960 29.837948,88.198517 
	C30.922224,99.204803 31.965651,110.215164 32.997051,121.226578 
	C33.366562,125.171532 33.894840,129.119232 33.952812,133.071533 
	C34.036240,138.758835 32.088490,140.261673 25.955454,139.308258 
z"/>
<path fill="#ECF9EC" opacity="1.000000" stroke="none" 
	d="
M97.091042,323.908691 
	C113.585182,323.926727 130.079315,323.959412 146.573456,323.960358 
	C247.045242,323.966156 347.517029,323.974945 447.988739,323.877747 
	C449.663574,323.876129 451.337189,322.557007 453.106689,321.430359 
	C453.791901,321.792664 454.381836,322.577209 454.997925,323.667664 
	C451.323822,324.648132 447.623627,325.322723 443.476959,325.995605 
	C341.346008,326.001312 239.661514,326.008728 137.073471,326.012878 
	C132.417389,325.690033 128.660629,325.062592 124.913155,325.113892 
	C116.698570,325.226288 108.490036,325.761536 100.275246,325.900848 
	C99.225410,325.918671 98.153000,324.605347 97.091042,323.908691 
z"/>
<path fill="#F1F1F1" opacity="1.000000" stroke="none" 
	d="
M97.080353,323.928375 
	C98.153000,324.605347 99.225410,325.918671 100.275246,325.900848 
	C108.490036,325.761536 116.698570,325.226288 124.913155,325.113892 
	C128.660629,325.062592 132.417389,325.690033 136.607727,326.021637 
	C136.949707,332.149139 124.763611,336.062103 120.329056,331.867706 
	C119.089828,330.695618 117.459221,329.937347 115.463203,329.227997 
	C118.013733,334.812897 117.155403,339.609161 113.916771,344.361908 
	C110.507797,349.364594 104.650795,351.722656 98.361130,350.044647 
	C92.812263,348.564270 88.196686,342.979919 87.998955,337.507568 
	C87.700974,329.260803 89.252159,326.356720 95.872345,323.981750 
	C96.718605,323.954895 96.910019,323.939484 97.101440,323.924042 
	C97.101440,323.924042 97.069656,323.948059 97.080353,323.928375 
M94.409546,338.624664 
	C95.416954,339.728424 96.411499,340.844238 97.434227,341.933594 
	C100.336166,345.024658 103.675682,344.466370 107.031883,342.948120 
	C110.802307,341.242523 110.586159,337.641876 109.787849,334.745819 
	C108.910454,331.562805 107.526360,328.126953 103.006096,327.949951 
	C96.640434,327.700684 94.001198,330.513885 94.409546,338.624664 
z"/>
<path fill="#F1F1F1" opacity="1.000000" stroke="none" 
	d="
M460.047302,59.292446 
	C466.636261,50.611134 475.548401,48.755661 482.952484,54.681614 
	C490.255585,60.526722 492.697876,70.542740 486.971710,78.002014 
	C483.351166,82.718353 478.265167,84.795166 472.532776,83.877472 
	C466.635742,82.933434 462.551422,78.961243 460.134094,73.608467 
	C458.092438,69.087608 456.375549,64.353592 460.047302,59.292446 
M469.103424,76.595039 
	C474.580109,80.253998 479.685394,79.758942 483.181549,75.229958 
	C486.644958,70.743279 485.419891,64.126152 480.214752,59.204887 
	C475.822113,55.051796 470.827240,54.954807 466.559204,58.939819 
	C461.238037,63.908169 461.865540,69.271004 469.103424,76.595039 
z"/>
<path fill="#F1F1F1" opacity="1.000000" stroke="none" 
	d="
M64.286880,112.960007 
	C64.707489,113.740944 64.778511,114.510208 64.741928,115.654175 
	C59.527134,119.755478 54.467548,123.549820 49.296112,127.185036 
	C45.811302,129.634659 42.168549,131.859573 38.620716,134.169220 
	C34.199432,128.072586 34.894619,122.649605 40.297745,118.847168 
	C44.081493,116.184364 47.884308,113.547638 51.632130,110.835060 
	C55.625568,107.944710 58.548046,108.198814 61.934715,111.749580 
	C62.452263,112.292213 63.262447,112.555733 64.286880,112.960007 
z"/>
<path fill="#F1F1F1" opacity="1.000000" stroke="none" 
	d="
M135.032028,62.200005 
	C131.651474,62.619698 128.261261,62.697872 124.420853,62.251762 
	C123.966026,60.063320 124.274750,58.323559 123.895042,56.749908 
	C122.948669,52.827732 120.815788,49.850685 116.508095,48.999367 
	C111.915962,48.091835 108.866722,50.431061 107.645294,54.321934 
	C106.873207,56.781429 107.836052,59.785557 108.020729,62.545399 
	C106.284851,62.630711 104.548981,62.716019 102.389175,62.695168 
	C102.143074,58.741249 101.624741,54.674915 102.740402,51.121632 
	C103.500000,48.702396 106.240471,46.440022 108.650558,45.126591 
	C111.412079,43.621639 114.620384,43.594814 116.112617,39.722752 
	C117.182182,36.947475 119.764343,38.310867 121.109367,40.352745 
	C125.805916,47.482544 130.393433,54.684155 135.032028,62.200005 
z"/>
<path fill="#F1F1F1" opacity="1.000000" stroke="none" 
	d="
M64.254234,93.974075 
	C64.687927,98.358200 64.735428,102.745033 64.669373,107.587280 
	C58.559868,105.360527 52.338726,103.057831 46.727215,99.727829 
	C45.334427,98.901306 44.885036,94.278648 45.819500,92.229904 
	C47.404991,88.753822 51.036636,89.692871 54.137157,90.739395 
	C57.376034,91.832603 60.624031,92.898788 64.254234,93.974075 
z"/>
<path fill="#F1F1F1" opacity="1.000000" stroke="none" 
	d="
M43.709808,92.317245 
	C41.307880,93.577225 39.013527,95.226822 36.821762,95.100227 
	C35.470360,95.022171 33.584316,92.399284 33.164169,90.628143 
	C32.444805,87.595627 33.011559,84.441422 37.129612,84.051643 
	C41.036777,83.681824 43.450127,85.491653 43.970943,89.481339 
	C44.076252,90.288025 43.904636,91.130844 43.709808,92.317245 
z"/>
<path fill="#F0F0F0" opacity="0.000000" stroke="none" 
	d="
M441.002441,76.004692 
	C433.141846,80.896667 436.216949,87.059830 438.595215,93.594978 
	C436.797089,94.004524 435.408508,94.008698 434.019958,94.012878 
	C431.255554,87.611885 430.777069,81.344086 435.328033,75.493446 
	C436.092010,74.511276 437.291779,73.868111 438.931702,73.173477 
	C440.049622,74.187340 440.526031,75.096016 441.002441,76.004692 
z"/>
<path fill="#EEFBEE" opacity="1.000000" stroke="none" 
	d="
M453.476044,101.825089 
	C453.107422,99.974258 453.019562,97.958557 452.890137,95.513039 
	C456.899567,95.148224 457.594452,92.396561 458.049408,89.182251 
	C458.340912,87.122749 459.145081,85.135818 459.944031,82.326691 
	C464.021301,88.044830 463.671661,92.808830 459.503357,96.942871 
	C457.751495,98.680321 455.681946,100.097450 453.476044,101.825089 
z"/>
<path fill="#F1F1F1" opacity="1.000000" stroke="none" 
	d="
M441.399689,75.955002 
	C440.526031,75.096016 440.049622,74.187340 439.283051,73.136635 
	C442.911591,69.647522 447.186188,68.715942 451.728973,71.525703 
	C452.620056,72.076836 452.917053,73.588516 453.488037,74.657196 
	C452.321320,75.049332 451.172455,75.699127 449.984253,75.781532 
	C447.265350,75.970116 444.527252,75.881416 441.399689,75.955002 
z"/>
<path fill="#CFEFCE" opacity="1.000000" stroke="none" 
	d="
M64.322014,65.934265 
	C64.762817,68.677437 64.828949,71.443535 64.763931,74.653793 
	C63.121880,72.984871 61.514526,70.924278 60.282310,68.659569 
	C60.183205,68.477417 62.664932,66.891045 64.322014,65.934265 
z"/>
<path fill="#CFEFCE" opacity="1.000000" stroke="none" 
	d="
M96.981567,62.277245 
	C93.004601,62.705059 88.910545,62.798141 84.360611,62.764702 
	C88.031921,58.815868 92.394875,59.385635 96.981567,62.277245 
z"/>
<path fill="#CFEFCE" opacity="1.000000" stroke="none" 
	d="
M433.613892,94.024902 
	C435.408508,94.008698 436.797089,94.004524 438.603027,93.977097 
	C443.138092,94.094925 447.255798,94.236008 451.686279,94.640610 
	C444.361603,94.923134 436.724182,94.942139 428.630310,94.944183 
	C428.330811,94.640938 428.487732,94.354645 428.903992,94.039978 
	C430.511475,94.020042 431.859619,94.028488 433.613892,94.024902 
z"/>
<path fill="#CFEFCE" opacity="1.000000" stroke="none" 
	d="
M429.508545,79.818878 
	C429.222290,79.253777 429.145905,78.487129 429.190552,77.350021 
	C429.447205,77.858818 429.582825,78.738075 429.508545,79.818878 
z"/>
<path fill="#ECF9EC" opacity="1.000000" stroke="none" 
	d="
M97.084122,323.601318 
	C96.910019,323.939484 96.718605,323.954895 96.238579,323.973511 
	C96.096062,323.443176 96.242165,322.909637 96.604034,322.196777 
	C96.902138,322.437836 96.984467,322.858215 97.084122,323.601318 
z"/>
<path fill="#CFEFCE" opacity="1.000000" stroke="none" 
	d="
M429.450195,63.902405 
	C429.205841,63.873562 429.117279,63.715237 429.006409,63.285793 
	C429.191406,63.267422 429.398712,63.520172 429.450195,63.902405 
z"/>
<path fill="#ECF9EC" opacity="1.000000" stroke="none" 
	d="
M96.901260,301.091980 
	C96.901260,301.091980 96.953072,301.555695 96.875732,301.775818 
	C96.491364,301.854919 96.254753,301.637299 96.002487,301.114075 
	C95.916420,300.885071 95.660606,300.713226 95.975876,300.775055 
	C96.494514,300.921936 96.697884,301.006958 96.901260,301.091980 
z"/>
<path fill="#8AD388" opacity="1.000000" stroke="none" 
	d="
M65.950256,300.574860 
	C66.071640,300.332397 66.391197,300.260742 66.910400,300.351501 
	C66.789505,300.591125 66.468964,300.668427 65.950256,300.574860 
z"/>
<path fill="#FEFEFE" opacity="1.000000" stroke="none" 
	d="
M479.441345,329.929321 
	C473.992889,330.976501 470.462402,328.424194 468.467651,324.361389 
	C466.747986,320.858856 468.755707,317.739044 471.390076,315.029846 
	C474.210907,312.128937 477.233673,312.380463 479.820465,314.634521 
	C482.562653,317.023987 486.299622,319.565704 484.294037,324.118286 
	C483.344452,326.273804 481.360016,327.973450 479.441345,329.929321 
z"/>
<path fill="#FEFEFE" opacity="1.000000" stroke="none" 
	d="
M443.288757,340.406830 
	C443.256775,334.071747 446.084961,330.890167 451.191528,331.003418 
	C455.451508,331.097900 460.632080,336.402008 459.782837,340.712555 
	C459.311829,343.103424 457.310242,345.706635 455.252441,347.151703 
	C452.094299,349.369476 448.886230,347.888214 446.465668,345.181396 
	C445.284119,343.860168 444.427063,342.248779 443.288757,340.406830 
z"/>
<path fill="#FCFEFB" opacity="1.000000" stroke="none" 
	d="
M331.925537,262.985199 
	C331.930176,263.745575 331.934784,264.505920 331.597351,265.886139 
	C330.856201,268.706207 330.457123,270.906433 330.058044,273.106659 
	C327.490295,283.614716 320.335144,290.000244 310.607330,293.351898 
	C296.057159,298.365082 281.798676,297.052551 268.351868,289.403687 
	C262.470215,286.058044 262.559265,285.806641 265.483887,279.815186 
	C267.372284,275.946594 269.282501,272.088684 270.893097,268.815094 
	C276.648041,271.102661 281.927002,273.878784 287.548523,275.296417 
	C299.758606,278.375519 306.899750,272.468475 307.018738,259.899902 
	C307.040680,257.581940 307.021881,255.263565 307.021881,253.751953 
	C301.925201,255.821823 296.897308,259.151459 291.547638,259.791595 
	C276.345520,261.610535 265.627777,254.396057 260.462036,239.909393 
	C255.732971,226.647537 255.510223,212.912292 256.656403,199.060608 
	C257.532928,188.467865 259.568512,178.296906 267.002899,170.105103 
	C268.756226,168.173157 271.000153,166.686447 273.621094,164.896851 
	C274.483459,164.550171 274.743164,164.301559 275.002838,164.052948 
	C275.002838,164.052948 275.274902,163.823517 275.721985,163.837463 
	C276.448639,163.640991 276.728241,163.430588 277.007843,163.220184 
	C277.358459,163.100555 277.709106,162.980927 278.607727,162.849365 
	C279.439392,162.625824 279.723053,162.414200 280.006714,162.202576 
	C281.426239,161.850311 282.845795,161.498016 284.728882,161.325073 
	C285.465240,161.392334 285.738068,161.280289 286.010864,161.168228 
	C287.396881,161.125687 288.782898,161.083160 290.671326,161.257477 
	C291.451813,161.394180 291.729919,161.314041 292.008026,161.233887 
	C292.842957,161.353561 293.677917,161.473236 294.965149,161.850830 
	C295.417480,162.108749 295.788239,162.104233 295.788239,162.104233 
	C295.788239,162.104233 295.888824,162.025101 296.120789,162.311584 
	C296.932892,162.714737 297.513062,162.831375 298.093201,162.948013 
	C298.093201,162.948013 298.559814,162.964783 298.963013,163.263550 
	C299.727722,163.622650 300.089264,163.682999 300.450775,163.743347 
	C300.450775,163.743347 300.778412,163.811554 301.006653,164.165665 
	C301.538025,164.656448 301.841125,164.793106 302.144226,164.929779 
	C302.626312,165.197220 303.108429,165.464661 303.895386,166.141632 
	C304.410248,166.819122 304.685211,166.962494 305.025146,166.981277 
	C305.025146,166.981277 305.000000,167.000610 305.003601,167.451324 
	C305.014557,170.226318 304.999146,172.550964 305.033386,174.874863 
	C305.150787,182.842804 311.479675,190.915649 319.333282,191.316071 
	C323.605530,191.533890 328.012177,189.115952 332.358154,187.886841 
	C332.400848,211.606705 332.443542,235.326538 332.083069,259.612671 
	C331.761780,261.114380 331.843658,262.049805 331.925537,262.985199 
M281.953369,221.729858 
	C282.079346,222.972122 282.205322,224.214386 282.215912,226.034882 
	C282.415649,226.358185 282.615417,226.681488 282.999298,227.728210 
	C287.276642,240.734589 298.246582,243.585068 307.651001,233.378342 
	C307.768921,225.291733 307.921967,217.205429 307.988770,209.118393 
	C308.018555,205.513885 307.280518,201.711975 312.062469,200.185928 
	C312.774719,199.958603 313.056030,198.380920 313.536682,197.427948 
	C312.551361,197.169678 311.575958,196.859116 310.577454,196.670547 
	C309.850891,196.533340 309.093903,196.557236 308.506989,196.519394 
	C308.015625,193.769043 307.591400,191.394363 306.902924,188.386765 
	C304.934113,186.572815 302.965302,184.758865 300.631500,182.449600 
	C299.423462,182.294647 298.215454,182.139709 296.313751,182.067719 
	C295.387787,182.154099 294.461853,182.240494 292.964600,182.199463 
	C292.641693,182.392075 292.318756,182.584702 291.449341,182.975082 
	C291.067596,183.033875 290.685852,183.092667 289.747009,183.166351 
	C289.489838,183.418915 289.232666,183.671463 288.689148,184.377869 
	C288.230988,184.640884 287.772797,184.903900 286.560852,185.081772 
	C286.077789,185.015015 285.596130,184.934357 285.111359,184.884155 
	C283.774567,184.745773 282.436462,184.620102 281.098877,184.489410 
	C281.265686,185.745865 281.302551,187.037811 281.633453,188.249435 
	C282.014893,189.645996 282.656006,190.971634 283.141876,192.898376 
	C283.041351,193.265839 282.940796,193.633286 282.357788,194.491364 
	C282.337189,195.162109 282.316620,195.832855 282.306458,197.260696 
	C282.137268,198.509949 281.968048,199.759201 281.269440,201.644531 
	C281.450684,208.093811 281.631897,214.543106 281.953369,221.729858 
z"/>
<path fill="#FBFEFB" opacity="1.000000" stroke="none" 
	d="
M397.805542,258.990479 
	C373.522888,265.316528 353.360718,252.614868 349.045990,228.269379 
	C346.316498,212.868271 346.000244,197.424667 352.317596,182.720001 
	C357.786957,169.989059 368.131165,160.189926 388.561798,160.924210 
	C403.307312,161.454178 415.773132,169.120865 420.665619,183.544312 
	C427.659271,204.162109 428.329529,224.895569 417.317078,244.686920 
	C413.135468,252.201981 406.327026,256.522034 397.805542,258.990479 
M391.311707,238.283707 
	C393.529114,235.535141 396.869965,233.108612 397.766449,229.981400 
	C401.346313,217.493500 401.226013,204.688828 397.838837,192.199112 
	C396.906250,188.760315 393.928040,184.977356 390.829071,183.212143 
	C384.372955,179.534744 377.552734,183.272598 375.126068,191.828613 
	C371.724365,203.822266 371.817841,216.131851 374.662292,228.229721 
	C376.854767,237.554642 381.038513,239.960281 391.311707,238.283707 
z"/>
<path fill="#FBFEFB" opacity="1.000000" stroke="none" 
	d="
M167.401352,227.431641 
	C165.498688,214.903610 165.467163,202.806061 168.118744,190.812073 
	C174.132416,163.610245 205.683105,151.223709 227.551544,167.571457 
	C235.908234,173.818512 240.494781,182.611801 242.287109,192.781326 
	C245.035263,208.374023 245.537872,223.928360 239.159973,238.852692 
	C233.668671,251.702393 223.887344,258.811920 209.729462,260.075592 
	C198.059052,261.117188 187.505508,259.052094 178.913330,250.649460 
	C172.533646,244.410492 169.157410,236.528061 167.401352,227.431641 
M191.823227,205.576630 
	C191.873901,210.735779 191.578217,215.929474 192.088013,221.042847 
	C192.475754,224.932053 193.506104,228.869278 194.941498,232.512939 
	C196.646942,236.842163 200.043808,239.161453 205.034576,239.182159 
	C210.185562,239.203552 213.904495,237.027390 215.557739,232.388123 
	C217.041595,228.224243 218.131912,223.761673 218.430038,219.365387 
	C219.137421,208.934158 219.765808,198.400513 215.089294,188.520706 
	C213.044952,184.201736 209.530106,181.946915 204.769409,182.016052 
	C200.162231,182.082947 196.511780,184.437759 195.168320,188.683868 
	C193.541306,193.826218 192.913116,199.284576 191.823227,205.576630 
z"/>
<path fill="#FCFFFC" opacity="1.000000" stroke="none" 
	d="
M138.977997,258.851868 
	C134.044022,258.851807 129.603928,258.851807 124.622643,258.851807 
	C124.622643,256.383636 124.622650,254.591599 124.622635,252.799545 
	C124.622429,211.361328 124.682091,169.922913 124.534142,128.485229 
	C124.518471,124.095482 125.401703,122.218437 130.239670,122.560997 
	C136.520477,123.005722 142.856583,122.669617 149.576752,122.669617 
	C149.576752,167.992386 149.576752,212.995285 149.576752,258.851898 
	C146.302551,258.851898 142.887207,258.851898 138.977997,258.851868 
z"/>
<path fill="#3CAE3B" opacity="1.000000" stroke="none" 
	d="
M421.007050,95.029587 
	C418.954895,95.376244 416.881714,95.962669 414.808289,95.963570 
	C311.375671,96.008232 207.943008,96.002449 104.510353,96.003479 
	C98.008797,96.003548 98.003677,96.008400 98.003540,102.451080 
	C98.002205,163.577957 98.005013,224.704819 97.991753,285.831696 
	C97.991364,287.653595 97.828125,289.475464 97.374466,291.588623 
	C97.008118,291.879944 96.739693,291.961029 96.829933,291.715118 
	C96.875916,291.300262 96.831665,291.131348 96.861420,290.501495 
	C96.949196,226.993011 96.953270,163.945480 97.020538,100.898018 
	C97.022690,98.875290 97.672554,96.853256 98.480591,94.915291 
	C201.298111,95.009354 303.655518,95.019569 406.012909,95.020645 
	C407.006836,95.020653 408.000763,94.899467 409.450409,94.903320 
	C413.582520,94.959671 417.258942,94.947563 420.935333,94.935448 
	C420.935333,94.935448 420.985931,94.996170 421.007050,95.029587 
z"/>
<path fill="#DDEEDC" opacity="1.000000" stroke="none" 
	d="
M332.509888,187.515076 
	C328.012177,189.115952 323.605530,191.533890 319.333282,191.316071 
	C311.479675,190.915649 305.150787,182.842804 305.033386,174.874863 
	C304.999146,172.550964 305.014557,170.226318 305.013794,167.439575 
	C306.118286,167.851974 307.216217,168.726822 308.416199,169.683014 
	C309.623993,162.331528 309.623993,162.331680 317.368744,162.352341 
	C321.177521,162.362503 324.995422,162.537582 328.792236,162.329224 
	C331.823700,162.162888 332.931061,163.222366 332.843414,166.284073 
	C332.644440,173.233185 332.705963,180.189758 332.509888,187.515076 
M310.801880,168.745712 
	C310.533234,171.508408 309.786652,174.325577 310.094147,177.022583 
	C310.761597,182.876389 318.190765,187.621735 323.782440,186.232056 
	C328.118927,185.154327 330.831848,182.776413 331.045105,178.036331 
	C331.301849,172.331223 327.696564,165.405518 323.093048,164.306442 
	C318.661957,163.248520 314.071655,163.258774 310.801880,168.745712 
z"/>
<path fill="#8AD388" opacity="1.000000" stroke="none" 
	d="
M96.918884,300.633972 
	C96.697884,301.006958 96.494514,300.921936 96.031357,300.631317 
	C95.867012,297.938141 95.962440,295.450531 96.187317,292.455933 
	C96.316780,291.948914 96.739693,291.961029 96.739693,291.961029 
	C96.739693,291.961029 97.008118,291.879944 97.141113,291.926147 
	C97.161575,294.706848 97.049042,297.441406 96.918884,300.633972 
z"/>
<path fill="#DDEEDC" opacity="1.000000" stroke="none" 
	d="
M330.344543,272.870300 
	C330.457123,270.906433 330.856201,268.706207 331.516968,266.258698 
	C331.396057,268.218933 331.013519,270.426453 330.344543,272.870300 
z"/>
<path fill="#DDEEDC" opacity="1.000000" stroke="none" 
	d="
M332.084961,262.704224 
	C331.843658,262.049805 331.761780,261.114380 331.916534,260.044922 
	C332.183624,260.748322 332.214020,261.585815 332.084961,262.704224 
z"/>
<path fill="#DDEEDC" opacity="1.000000" stroke="none" 
	d="
M297.907959,162.699402 
	C297.513062,162.831375 296.932892,162.714737 296.156311,162.364807 
	C296.547485,162.237961 297.135101,162.344360 297.907959,162.699402 
z"/>
<path fill="#DDEEDC" opacity="1.000000" stroke="none" 
	d="
M279.730103,162.155548 
	C279.723053,162.414200 279.439392,162.625824 278.882996,162.809418 
	C278.891327,162.557098 279.172424,162.332825 279.730103,162.155548 
z"/>
<path fill="#DDEEDC" opacity="1.000000" stroke="none" 
	d="
M291.758606,161.140198 
	C291.729919,161.314041 291.451813,161.394180 291.082764,161.324387 
	C291.164276,161.131790 291.336700,161.089142 291.758606,161.140198 
z"/>
<path fill="#DDEEDC" opacity="1.000000" stroke="none" 
	d="
M295.730591,161.980286 
	C295.788239,162.104233 295.417480,162.108749 295.339661,162.055328 
	C295.261871,162.001923 295.414276,161.779846 295.414276,161.779846 
	C295.414276,161.779846 295.672943,161.856339 295.730591,161.980286 
z"/>
<path fill="#DDEEDC" opacity="1.000000" stroke="none" 
	d="
M285.753021,161.102448 
	C285.738068,161.280289 285.465240,161.392334 285.093323,161.360352 
	C285.161194,161.156403 285.328186,161.096527 285.753021,161.102448 
z"/>
<path fill="#DDEEDC" opacity="1.000000" stroke="none" 
	d="
M276.735352,163.181244 
	C276.728241,163.430588 276.448639,163.640991 275.899292,163.822571 
	C275.907318,163.576599 276.185120,163.359467 276.735352,163.181244 
z"/>
<path fill="#DDEEDC" opacity="1.000000" stroke="none" 
	d="
M300.280884,163.507874 
	C300.089264,163.682999 299.727722,163.622650 299.180725,163.347778 
	C299.367188,163.179626 299.739075,163.225998 300.280884,163.507874 
z"/>
<path fill="#DDEEDC" opacity="1.000000" stroke="none" 
	d="
M304.950775,166.737335 
	C304.685211,166.962494 304.410248,166.819122 304.095947,166.336792 
	C304.286560,166.246078 304.581482,166.369736 304.950775,166.737335 
z"/>
<path fill="#DDEEDC" opacity="1.000000" stroke="none" 
	d="
M274.718933,164.050598 
	C274.743164,164.301559 274.483459,164.550171 273.947937,164.815430 
	C273.926392,164.570816 274.180695,164.309540 274.718933,164.050598 
z"/>
<path fill="#DDEEDC" opacity="1.000000" stroke="none" 
	d="
M302.044128,164.683014 
	C301.841125,164.793106 301.538025,164.656448 301.116180,164.292175 
	C301.312958,164.188461 301.628510,164.312363 302.044128,164.683014 
z"/>
<path fill="#FEFFFE" opacity="1.000000" stroke="none" 
	d="
M98.020477,94.830894 
	C97.672554,96.853256 97.022690,98.875290 97.020538,100.898018 
	C96.953270,163.945480 96.949196,226.993011 96.497696,290.504150 
	C94.710701,291.253052 93.361458,291.538361 92.012215,291.823700 
	C86.658157,291.866577 81.304100,291.909454 75.454605,291.605408 
	C74.429916,290.820435 73.900650,290.382385 73.371384,289.944366 
	C73.302528,289.116455 73.173378,288.288574 73.173416,287.460663 
	C73.176132,228.629166 73.189163,169.797668 73.625580,110.409576 
	C76.286453,106.705605 77.916718,103.600395 73.428490,100.920799 
	C73.362907,98.497414 73.297325,96.074028 73.693283,93.287384 
	C75.624695,93.953537 77.018250,95.128227 78.594055,95.955986 
	C79.490059,96.426666 80.968704,96.788597 81.662773,96.357925 
	C82.337540,95.939240 82.932800,94.047768 82.553131,93.488266 
	C79.651047,89.211578 76.501984,85.102493 73.429718,80.941292 
	C73.353638,78.256195 73.277557,75.571098 73.443375,72.372070 
	C73.865700,71.704208 73.975639,71.510323 74.015083,71.276466 
	C74.454338,71.203865 74.893600,71.131256 75.782791,71.306366 
	C76.442413,71.779366 76.695526,71.933220 76.994217,72.442665 
	C77.029503,84.045067 85.541679,91.322807 95.171921,88.409454 
	C102.073593,86.321548 105.386963,81.293953 105.998642,71.790131 
	C106.010101,71.581535 106.024010,71.163956 106.024010,71.163956 
	C108.065758,71.126358 110.107498,71.088760 112.900116,71.371307 
	C117.767357,71.795654 121.883713,71.899849 125.785400,72.288879 
	C123.744499,73.339737 121.712433,73.826904 120.164246,74.969635 
	C119.128304,75.734276 118.187027,77.498100 118.323044,78.686661 
	C118.420784,79.540688 120.786827,81.075066 121.422592,80.776451 
	C125.861473,78.691544 131.797394,78.398148 133.314911,72.022446 
	C134.063278,71.728630 134.530319,71.455269 134.997375,71.181915 
	C135.826096,71.126808 136.654816,71.023407 137.483536,71.023438 
	C231.344360,71.027359 325.205170,71.038986 419.614441,71.304489 
	C420.325073,71.783005 420.539093,71.933548 420.804962,72.010429 
	C420.857117,79.022720 420.909271,86.035011 420.457397,93.512566 
	C416.301849,93.985321 412.650330,93.992813 408.530243,93.999390 
	C306.803284,93.998779 205.544846,93.994095 104.286430,94.034073 
	C102.197670,94.034897 100.109123,94.553726 98.020477,94.830894 
z"/>
<path fill="#FEFEFE" opacity="1.000000" stroke="none" 
	d="
M108.476311,62.647167 
	C107.836052,59.785557 106.873207,56.781429 107.645294,54.321934 
	C108.866722,50.431061 111.915962,48.091835 116.508095,48.999367 
	C120.815788,49.850685 122.948669,52.827732 123.895042,56.749908 
	C124.274750,58.323559 123.966026,60.063320 123.974297,62.134132 
	C118.962593,62.610172 113.947243,62.679554 108.476311,62.647167 
z"/>
<path fill="#FEFEFE" opacity="1.000000" stroke="none" 
	d="
M84.004211,71.166702 
	C88.361847,71.124207 92.719490,71.081703 97.656235,71.294769 
	C98.445747,71.776398 98.699768,71.930618 99.040703,72.385170 
	C101.558083,77.190651 98.497017,79.978111 95.465683,81.643051 
	C93.536736,82.702515 90.237724,82.200150 87.904770,81.387917 
	C83.677193,79.916077 83.019272,75.998558 83.209915,71.922951 
	C83.685692,71.675804 83.881439,71.453369 84.004211,71.166702 
z"/>
<path fill="#E2FAE3" opacity="1.000000" stroke="none" 
	d="
M73.306854,81.381416 
	C76.501984,85.102493 79.651047,89.211578 82.553131,93.488266 
	C82.932800,94.047768 82.337540,95.939240 81.662773,96.357925 
	C80.968704,96.788597 79.490059,96.426666 78.594055,95.955986 
	C77.018250,95.128227 75.624695,93.953537 73.756279,92.832695 
	C73.299820,89.101357 73.241905,85.461449 73.306854,81.381416 
z"/>
<path fill="#E2FAE3" opacity="1.000000" stroke="none" 
	d="
M73.303665,101.297043 
	C77.916718,103.600395 76.286453,106.705605 73.714355,109.952515 
	C73.312202,107.259125 73.245522,104.466202 73.303665,101.297043 
z"/>
<path fill="#E2FAE3" opacity="1.000000" stroke="none" 
	d="
M134.536423,71.093369 
	C134.530319,71.455269 134.063278,71.728630 132.873810,72.008156 
	C130.100967,72.010895 128.050522,72.007469 126.000076,72.004044 
	C121.883713,71.899849 117.767357,71.795654 113.333916,71.434769 
	C120.036385,71.120331 127.055923,71.062584 134.536423,71.093369 
z"/>
<path fill="#E2FAE3" opacity="1.000000" stroke="none" 
	d="
M408.998779,94.000305 
	C412.650330,93.992813 416.301849,93.985321 420.380432,93.973473 
	C420.807465,93.969116 420.961884,94.440315 420.948608,94.687881 
	C417.258942,94.947563 413.582520,94.959671 409.451904,94.694687 
	C408.997650,94.417595 408.998779,94.000305 408.998779,94.000305 
z"/>
<path fill="#E2FAE3" opacity="1.000000" stroke="none" 
	d="
M98.997406,72.013000 
	C98.699768,71.930618 98.445747,71.776398 98.116882,71.358963 
	C100.380409,71.110756 102.762405,71.053909 105.584213,71.080513 
	C106.024010,71.163956 106.010101,71.581535 105.562515,71.790314 
	C103.075760,72.003723 101.036583,72.008362 98.997406,72.013000 
z"/>
<path fill="#E2FAE3" opacity="1.000000" stroke="none" 
	d="
M83.565933,71.082123 
	C83.881439,71.453369 83.685692,71.675804 82.780762,71.919716 
	C80.427071,72.008820 78.709572,72.012222 76.992073,72.015625 
	C76.695526,71.933220 76.442413,71.779366 76.115356,71.362885 
	C78.374542,71.113647 80.751099,71.055595 83.565933,71.082123 
z"/>
<path fill="#E2FAE3" opacity="1.000000" stroke="none" 
	d="
M92.393814,291.922607 
	C93.361458,291.538361 94.710701,291.253052 96.423676,290.965088 
	C96.831665,291.131348 96.875916,291.300262 96.829933,291.715118 
	C96.739693,291.961029 96.316780,291.948914 96.122345,292.032166 
	C94.877075,292.084137 93.826241,292.052856 92.393814,291.922607 
z"/>
<path fill="#E2FAE3" opacity="1.000000" stroke="none" 
	d="
M73.274834,290.271790 
	C73.900650,290.382385 74.429916,290.820435 74.993355,291.536133 
	C74.411118,291.408936 73.794701,291.004089 73.274834,290.271790 
z"/>
<path fill="#E2FAE3" opacity="1.000000" stroke="none" 
	d="
M73.784683,71.251884 
	C73.975639,71.510323 73.865700,71.704208 73.532150,71.931358 
	C73.379021,72.004585 73.237083,71.564148 73.237083,71.564148 
	C73.237083,71.564148 73.554291,71.227303 73.784683,71.251884 
z"/>
<path fill="#E2FAE3" opacity="1.000000" stroke="none" 
	d="
M420.838501,71.753342 
	C420.539093,71.933548 420.325073,71.783005 420.077209,71.378983 
	C420.285004,71.298203 420.578522,71.397232 420.838501,71.753342 
z"/>
<path fill="#FEFEFE" opacity="1.000000" stroke="none" 
	d="
M134.510010,33.475937 
	C138.209793,30.987202 141.978943,29.514122 145.148300,33.000225 
	C147.863495,35.986774 150.675522,39.472019 147.948563,44.115471 
	C145.833893,47.716339 141.425797,49.288876 137.627930,47.683830 
	C134.321716,46.286572 131.409988,40.043716 132.635605,36.830906 
	C133.046143,35.754696 133.696609,34.770004 134.510010,33.475937 
z"/>
<path fill="#FEFEFE" opacity="1.000000" stroke="none" 
	d="
M160.303452,28.806602 
	C156.332855,23.948551 155.834732,19.970221 158.575134,16.935814 
	C161.932785,13.217928 165.097488,13.154875 169.448227,16.719179 
	C173.057999,19.676453 174.101486,24.647127 171.755219,27.708632 
	C168.710892,31.681053 164.999146,32.137238 160.303452,28.806602 
z"/>
<path fill="#FEFEFE" opacity="1.000000" stroke="none" 
	d="
M94.267349,338.259094 
	C94.001198,330.513885 96.640434,327.700684 103.006096,327.949951 
	C107.526360,328.126953 108.910454,331.562805 109.787849,334.745819 
	C110.586159,337.641876 110.802307,341.242523 107.031883,342.948120 
	C103.675682,344.466370 100.336166,345.024658 97.434227,341.933594 
	C96.411499,340.844238 95.416954,339.728424 94.267349,338.259094 
z"/>
<path fill="#FEFEFE" opacity="1.000000" stroke="none" 
	d="
M468.833191,76.329796 
	C461.865540,69.271004 461.238037,63.908169 466.559204,58.939819 
	C470.827240,54.954807 475.822113,55.051796 480.214752,59.204887 
	C485.419891,64.126152 486.644958,70.743279 483.181549,75.229958 
	C479.685394,79.758942 474.580109,80.253998 468.833191,76.329796 
z"/>
<path fill="#3BB03A" opacity="1.000000" stroke="none" 
	d="
M307.088196,233.987564 
	C298.246582,243.585068 287.276642,240.734589 282.959167,227.077820 
	C282.723083,226.103851 282.527191,225.780258 282.331299,225.456650 
	C282.205322,224.214386 282.079346,222.972122 281.970154,220.900513 
	C281.924255,213.716919 281.861572,207.362686 281.798859,201.008453 
	C281.968048,199.759201 282.137268,198.509949 282.522766,196.624359 
	C282.772827,195.325607 282.806549,194.663177 282.840271,194.000748 
	C282.940796,193.633286 283.041351,193.265839 283.427734,192.382324 
	C284.913940,189.633163 286.114288,187.400040 287.314636,185.166916 
	C287.772797,184.903900 288.230988,184.640884 289.107605,184.131500 
	C289.785400,183.640594 290.044739,183.396042 290.304108,183.151474 
	C290.685852,183.092667 291.067596,183.033875 292.006561,182.927032 
	C292.887817,182.694962 293.211853,182.510925 293.535889,182.326874 
	C294.461853,182.240494 295.387787,182.154099 296.925842,182.256042 
	C298.690765,182.611221 299.843628,182.778061 300.996490,182.944901 
	C302.965302,184.758865 304.934113,186.572815 306.955505,189.164337 
	C307.034821,204.623795 307.061523,219.305679 307.088196,233.987564 
z"/>
<path fill="#E7F9E8" opacity="1.000000" stroke="none" 
	d="
M307.369598,233.682953 
	C307.061523,219.305679 307.034821,204.623795 307.087646,189.480804 
	C307.591400,191.394363 308.015625,193.769043 308.506989,196.519394 
	C309.093903,196.557236 309.850891,196.533340 310.577454,196.670547 
	C311.575958,196.859116 312.551361,197.169678 313.536682,197.427948 
	C313.056030,198.380920 312.774719,199.958603 312.062469,200.185928 
	C307.280518,201.711975 308.018555,205.513885 307.988770,209.118393 
	C307.921967,217.205429 307.768921,225.291733 307.369598,233.682953 
z"/>
<path fill="#DDF7DD" opacity="1.000000" stroke="none" 
	d="
M286.937744,185.124344 
	C286.114288,187.400040 284.913940,189.633163 283.448975,192.097183 
	C282.656006,190.971634 282.014893,189.645996 281.633453,188.249435 
	C281.302551,187.037811 281.265686,185.745865 281.098877,184.489410 
	C282.436462,184.620102 283.774567,184.745773 285.111359,184.884155 
	C285.596130,184.934357 286.077789,185.015015 286.937744,185.124344 
z"/>
<path fill="#DDF7DD" opacity="1.000000" stroke="none" 
	d="
M281.534149,201.326492 
	C281.861572,207.362686 281.924255,213.716919 281.900024,220.531769 
	C281.631897,214.543106 281.450684,208.093811 281.534149,201.326492 
z"/>
<path fill="#DDF7DD" opacity="1.000000" stroke="none" 
	d="
M300.813995,182.697250 
	C299.843628,182.778061 298.690765,182.611221 297.272644,182.214569 
	C298.215454,182.139709 299.423462,182.294647 300.813995,182.697250 
z"/>
<path fill="#DDF7DD" opacity="1.000000" stroke="none" 
	d="
M282.599030,194.246063 
	C282.806549,194.663177 282.772827,195.325607 282.517578,196.245819 
	C282.316620,195.832855 282.337189,195.162109 282.599030,194.246063 
z"/>
<path fill="#DDF7DD" opacity="1.000000" stroke="none" 
	d="
M293.250244,182.263168 
	C293.211853,182.510925 292.887817,182.694962 292.279785,182.828156 
	C292.318756,182.584702 292.641693,182.392075 293.250244,182.263168 
z"/>
<path fill="#DDF7DD" opacity="1.000000" stroke="none" 
	d="
M282.273621,225.745758 
	C282.527191,225.780258 282.723083,226.103851 282.867065,226.716125 
	C282.615417,226.681488 282.415649,226.358185 282.273621,225.745758 
z"/>
<path fill="#DDF7DD" opacity="1.000000" stroke="none" 
	d="
M290.025574,183.158905 
	C290.044739,183.396042 289.785400,183.640594 289.250732,183.904587 
	C289.232666,183.671463 289.489838,183.418915 290.025574,183.158905 
z"/>
<path fill="#3BB03A" opacity="1.000000" stroke="none" 
	d="
M390.954468,238.475037 
	C381.038513,239.960281 376.854767,237.554642 374.662292,228.229721 
	C371.817841,216.131851 371.724365,203.822266 375.126068,191.828613 
	C377.552734,183.272598 384.372955,179.534744 390.829071,183.212143 
	C393.928040,184.977356 396.906250,188.760315 397.838837,192.199112 
	C401.226013,204.688828 401.346313,217.493500 397.766449,229.981400 
	C396.869965,233.108612 393.529114,235.535141 390.954468,238.475037 
z"/>
<path fill="#3CB13B" opacity="1.000000" stroke="none" 
	d="
M191.837967,205.091415 
	C192.913116,199.284576 193.541306,193.826218 195.168320,188.683868 
	C196.511780,184.437759 200.162231,182.082947 204.769409,182.016052 
	C209.530106,181.946915 213.044952,184.201736 215.089294,188.520706 
	C219.765808,198.400513 219.137421,208.934158 218.430038,219.365387 
	C218.131912,223.761673 217.041595,228.224243 215.557739,232.388123 
	C213.904495,237.027390 210.185562,239.203552 205.034576,239.182159 
	C200.043808,239.161453 196.646942,236.842163 194.941498,232.512939 
	C193.506104,228.869278 192.475754,224.932053 192.088013,221.042847 
	C191.578217,215.929474 191.873901,210.735779 191.837967,205.091415 
z"/>
<path fill="#E4FFE6" opacity="1.000000" stroke="none" 
	d="
M408.530243,93.999390 
	C408.998779,94.000305 408.997650,94.417595 408.996155,94.626228 
	C408.000763,94.899467 407.006836,95.020653 406.012909,95.020645 
	C303.655518,95.019569 201.298111,95.009354 98.480591,94.915291 
	C100.109123,94.553726 102.197670,94.034897 104.286430,94.034073 
	C205.544846,93.994095 306.803284,93.998779 408.530243,93.999390 
z"/>
<path fill="#FEFEFE" opacity="1.000000" stroke="none" 
	d="
M311.066589,168.438889 
	C314.071655,163.258774 318.661957,163.248520 323.093048,164.306442 
	C327.696564,165.405518 331.301849,172.331223 331.045105,178.036331 
	C330.831848,182.776413 328.118927,185.154327 323.782440,186.232056 
	C318.190765,187.621735 310.761597,182.876389 310.094147,177.022583 
	C309.786652,174.325577 310.533234,171.508408 311.066589,168.438889 
z"/>
<path fill="#F1F1F1" opacity="1.000000" stroke="none" 
	d="
M76.994217,72.442657 
	C78.709572,72.012222 80.427071,72.008820 82.573715,72.008644 
	C83.019272,75.998558 83.677193,79.916077 87.904770,81.387917 
	C90.237724,82.200150 93.536736,82.702515 95.465683,81.643051 
	C98.497017,79.978111 101.558083,77.190651 99.040703,72.385170 
	C101.036583,72.008362 103.075760,72.003723 105.551056,71.998901 
	C105.386963,81.293953 102.073593,86.321548 95.171921,88.409454 
	C85.541679,91.322807 77.029503,84.045067 76.994217,72.442657 
z"/>
<path fill="#F0F0F0" opacity="0.000000" stroke="none" 
	d="
M125.785400,72.288872 
	C128.050522,72.007469 130.100967,72.010895 132.592499,72.028610 
	C131.797394,78.398148 125.861473,78.691544 121.422592,80.776451 
	C120.786827,81.075066 118.420784,79.540688 118.323044,78.686661 
	C118.187027,77.498100 119.128304,75.734276 120.164246,74.969635 
	C121.712433,73.826904 123.744499,73.339737 125.785400,72.288872 
z"/>
</svg>