<svg xmlns="http://www.w3.org/2000/svg" xmlns:xlink="http://www.w3.org/1999/xlink" version="1.1" id="Layer_1" x="0px" y="0px" width="1670" height="728" viewBox="0 0 835 364" enable-background="new 0 0 835 364" xml:space="preserve">
<path fill="#E5583A" opacity="1.000000" stroke="none" d=" M156.999588,121.049011   C157.530380,120.825775 158.061172,120.602539 159.137100,120.103897   C168.488205,114.661140 177.294159,109.493813 186.100128,104.326477   C187.289383,103.778191 188.478638,103.229897 190.326492,102.401611   C193.297485,102.135429 195.609848,102.149246 197.922226,102.163055   C202.010757,104.578568 206.099289,106.994080 210.877228,109.816895   C188.247757,122.859200 166.225327,135.551636 143.305847,148.761078   C149.035278,152.084885 154.140076,155.298843 159.519897,157.955963   C160.606506,158.492645 162.865631,157.149490 164.362122,156.287476   C184.110748,144.911606 203.868210,133.548965 223.491013,121.958794   C226.802094,120.003105 229.208191,119.984344 232.515106,121.955040   C245.238785,129.537506 258.184265,136.746796 270.980865,144.208679   C273.216553,145.512329 275.133484,147.362625 277.800903,149.427414   C265.867645,156.344345 254.685623,162.848801 243.481339,169.314606   C228.205246,178.130203 212.873993,186.851303 197.662735,195.777069   C195.030441,197.321671 193.015900,197.498474 190.436691,195.802444   C186.444336,193.177185 182.223618,190.899231 177.278900,187.991272   C200.023056,174.793716 222.085083,161.991974 244.916733,148.743652   C239.253830,145.497147 234.386261,142.463272 229.261581,139.954544   C228.105209,139.388458 225.857620,140.311081 224.443192,141.124023   C204.539520,152.563782 184.636505,164.007599 164.886093,175.708313   C161.408875,177.768326 158.872482,177.689896 155.510376,175.659500   C146.135864,169.998230 136.549133,164.688354 126.186707,158.746948   C126.186707,165.203705 126.075569,170.915741 126.291588,176.615387   C126.329422,177.613495 127.545044,178.897949 128.547684,179.479767   C149.558502,191.671616 170.585129,203.837738 191.739822,215.776474   C193.106812,216.547928 195.856888,216.012131 197.418381,215.124924   C223.158203,200.499802 248.809570,185.719009 274.485291,170.981018   C275.605713,170.337891 276.769592,169.770584 278.421783,168.900009   C278.541321,170.417816 278.698608,171.492905 278.699738,172.568146   C278.715729,187.896973 278.556122,203.228165 278.787079,218.553513   C278.878601,224.625717 276.399780,228.559433 271.262238,231.494232   C247.696350,244.956131 224.189041,258.520844 200.698776,272.114471   C196.235413,274.697388 191.954865,274.771515 187.504898,272.203888   C163.708786,258.473541 139.913513,244.741547 116.071251,231.091690   C111.754135,228.620117 109.477013,225.147537 109.462181,220.191559   C109.450760,216.374115 109.459908,212.556610 109.459908,207.798416   C111.914627,209.131866 113.876518,210.139389 115.783295,211.242218   C140.258530,225.397903 164.755249,239.516968 189.160858,253.791779   C192.495697,255.742340 195.047073,256.072845 198.610596,253.965912   C218.373581,242.280914 238.283676,230.842361 258.240723,219.490540   C261.080200,217.875397 262.286407,216.154816 262.072205,212.850037   C261.764252,208.099228 261.993591,203.313599 261.993591,197.803146   C249.613052,204.933899 237.848099,211.705399 226.087875,218.485077   C216.432388,224.051407 206.736465,229.550201 197.163589,235.255325   C194.869553,236.622513 193.211975,236.639145 190.874237,235.277161   C164.853638,220.117401 138.731003,205.132538 112.749992,189.905792   C111.151482,188.968948 109.638855,186.426849 109.573578,184.579086   C109.250244,175.426544 109.499954,166.255539 109.401276,157.092621   C109.337311,151.153503 111.826202,147.127548 117.115005,144.250687   C126.765236,139.001434 136.187302,133.332718 146.265869,127.484802   C150.217987,125.103416 153.608780,123.076210 156.999588,121.049011  z"/>
<path fill="#E5593A" opacity="1.000000" stroke="none" d=" M491.933838,157.134033   C491.933838,159.249207 491.933838,161.364380 491.933838,163.723740   C509.330048,151.901703 523.533752,153.354691 534.615234,167.929108   C542.275208,157.597000 552.430969,153.873627 564.911133,156.715607   C575.202209,159.059052 583.224976,167.221634 583.768616,178.022537   C584.511780,192.786957 583.954224,207.616852 583.954224,222.713135   C578.786865,222.713135 573.534302,222.713135 567.650208,222.713135   C567.650208,214.629379 567.700439,206.521286 567.632385,198.414200   C567.587708,193.087250 567.706665,187.726669 567.152649,182.444046   C566.384644,175.121948 561.519958,171.044067 554.012878,170.702972   C545.766663,170.328293 539.991760,173.955292 538.952576,181.344025   C538.031372,187.893494 538.254395,194.615601 538.144836,201.264343   C538.029602,208.257278 538.119080,215.253601 538.119080,222.627213   C532.710327,222.627213 527.463928,222.627213 521.592529,222.627213   C521.523315,221.051666 521.387878,219.306381 521.379517,217.560501   C521.327515,206.728256 521.502747,195.890518 521.211487,185.065140   C520.953247,175.467834 515.638489,170.523956 506.455963,170.657913   C497.371033,170.790436 492.116333,176.033264 492.004547,185.518570   C491.859650,197.815292 491.969177,210.115021 491.969177,222.708282   C486.302307,222.708282 481.050446,222.708282 475.060547,222.708282   C475.060547,203.457108 475.060547,184.196075 475.058472,164.059189   C475.004211,161.784882 474.951996,160.386444 474.899780,158.987991   C476.207947,158.270737 477.444183,157.233521 478.842926,156.918915   C480.514008,156.543060 482.324127,156.785507 484.939728,156.774277   C487.848236,156.903625 489.891022,157.018829 491.933838,157.134033  z"/>
<path fill="#E5583A" opacity="1.000000" stroke="none" d=" M664.900513,174.001587   C664.900452,190.452042 664.900452,206.402710 664.900452,222.678299   C659.165955,222.678299 653.788879,222.678299 648.094788,222.678299   C648.094788,219.924759 648.094788,217.321838 648.094788,214.421158   C647.312683,214.690948 646.761047,214.707809 646.516663,214.990402   C633.745117,229.757706 606.622375,227.333618 598.197998,203.108002   C594.507202,192.494461 594.860168,181.741898 600.111511,171.615494   C609.498291,153.514633 633.594849,150.123825 647.781921,165.818314   C647.926392,162.587036 648.044922,159.935074 648.172852,157.074860   C653.731628,157.074860 658.988586,157.074860 664.900574,157.074860   C664.900574,162.628723 664.900574,168.065262 664.900513,174.001587  M613.034180,189.507172   C613.945374,200.746979 619.608582,208.093048 628.045471,208.979172   C636.130127,209.828308 642.978088,206.104507 645.953308,199.241211   C649.655090,190.701859 647.797119,179.791916 641.845764,174.830872   C636.513672,170.386078 630.508911,169.472290 624.156738,171.861710   C616.529602,174.730728 613.674866,181.008835 613.034180,189.507172  z"/>
<path fill="#E5583A" opacity="1.000000" stroke="none" d=" M459.050476,178.010254   C459.050476,192.787567 459.050476,207.564880 459.050476,222.672150   C453.043213,222.672150 447.665344,222.672150 442.102448,222.672150   C441.992493,220.263565 441.889526,218.008209 441.752930,215.015930   C434.666321,221.835190 426.726318,224.773499 417.443237,223.342224   C405.206940,221.455597 396.507111,212.455276 396.082458,200.025986   C395.600159,185.908051 395.971069,171.760986 395.971069,157.231842   C401.237946,157.231842 406.444885,157.231842 412.454315,157.231842   C412.454315,165.183304 412.454315,173.105331 412.425476,181.899246   C412.470703,185.195023 412.544769,187.618881 412.506317,190.427002   C412.596771,195.951416 412.474518,201.179382 416.470306,205.253616   C420.330719,209.189835 427.786560,210.616318 433.142639,208.425797   C439.093292,205.992111 441.928040,200.593643 441.839172,191.645935   C441.868896,190.503372 441.815308,189.737747 441.761719,188.972137   C441.798615,186.945618 441.835510,184.919083 441.881439,182.028717   C441.848083,179.102005 441.805695,177.039169 441.827332,174.514114   C441.849823,168.708954 441.808289,163.365982 442.020813,157.654663   C447.530518,157.084366 452.786133,156.882431 458.041779,156.680496   C458.320923,157.241913 458.600067,157.803329 458.870972,159.137146   C458.925323,165.943100 458.987915,171.976669 459.050476,178.010254  z"/>
<path fill="#E6593B" opacity="1.000000" stroke="none" d=" M339.507996,159.369202   C349.062988,155.157700 358.477448,154.474930 367.975006,158.045258   C376.157410,161.121201 381.288300,168.543762 381.493439,177.592209   C377.028809,177.592209 372.557617,177.758301 368.115906,177.470062   C367.065918,177.401917 365.610565,175.992355 365.201599,174.882874   C362.809753,168.394608 352.626587,167.660522 347.875519,171.014435   C344.502289,173.395660 344.730408,178.110245 348.705170,179.961288   C353.337524,182.118546 358.422821,183.281876 363.236633,185.077347   C367.417389,186.636688 372.010437,187.766129 375.521545,190.321732   C387.123810,198.766510 384.022461,215.451935 369.995941,221.624466   C357.784851,226.998108 341.462006,223.830307 332.784424,213.870544   C330.211151,210.917084 328.894653,206.868622 326.297913,202.001816   C332.939697,202.001816 337.835083,201.882233 342.714264,202.110016   C343.612183,202.151932 344.715576,203.450012 345.262360,204.426758   C348.516937,210.240265 358.130341,212.691849 363.558594,208.986130   C367.493042,206.300186 367.488922,201.305496 363.158936,199.398438   C358.779480,197.469650 353.986359,196.503296 349.452667,194.894791   C345.083252,193.344528 340.364655,192.188309 336.585236,189.676605   C325.553772,182.345413 327.009003,167.501022 339.507996,159.369202  z"/>
</svg>