<svg version="1.1" id="Layer_1" xmlns="http://www.w3.org/2000/svg" xmlns:xlink="http://www.w3.org/1999/xlink" x="0px" y="0px"
	 width="100%" viewBox="0 0 835 364" enable-background="new 0 0 835 364" xml:space="preserve">
<path fill="#FFFFFF" opacity="1.000000" stroke="none" 
	d="
M547.000000,365.000000 
	C545.611084,365.000000 544.222229,365.000000 542.385254,364.644043 
	C537.374817,357.442810 532.888184,350.544281 528.159607,343.815765 
	C527.527649,342.916473 525.671509,342.877441 524.382263,342.440063 
	C523.964661,343.932770 523.293152,345.415466 523.233948,346.922241 
	C523.203186,347.705627 524.275574,348.517303 524.812378,349.340485 
	C528.214111,354.556549 531.605286,359.779388 535.000000,365.000000 
	C525.979126,365.000000 516.958191,365.000000 507.426514,364.628845 
	C503.330200,359.247772 498.498291,359.576385 496.000000,365.000000 
	C495.250000,365.000000 494.500000,365.000000 493.365143,364.593811 
	C492.653564,362.427124 492.125854,360.676025 492.042664,358.904114 
	C491.877258,355.380432 490.068146,354.005188 486.686157,353.964813 
	C483.026215,353.921082 480.669617,355.484100 480.077545,359.096802 
	C479.762848,361.017181 480.007690,363.029297 480.000000,365.000000 
	C393.645782,365.000000 307.291534,365.000000 220.508850,364.616028 
	C222.509354,359.501709 223.117371,354.705750 219.999008,350.087280 
	C215.833328,343.917725 211.575119,337.804993 207.170837,331.804199 
	C204.417374,328.052673 202.823242,328.277954 200.047043,332.050201 
	C199.376175,332.961823 198.211960,333.717438 197.120316,334.079163 
	C189.202026,336.702942 185.951813,341.732117 187.016785,349.957581 
	C188.312683,359.966644 200.546478,366.124634 208.529541,360.574493 
	C210.817612,358.983734 212.390121,356.363708 214.290726,354.215576 
	C214.806320,354.360870 215.321930,354.506134 215.837540,354.651398 
	C215.414444,356.740021 215.194794,358.899445 214.501053,360.893921 
	C213.986389,362.373596 212.856079,363.639099 212.000000,365.000000 
	C205.312363,365.000000 198.624710,365.000000 191.468155,364.610260 
	C189.864426,356.462799 182.805801,349.800995 176.115417,350.173523 
	C167.714813,350.641266 162.158386,356.477600 162.000000,365.000000 
	C159.629440,365.000000 157.258896,365.000000 154.408813,364.649902 
	C153.435867,363.462982 153.046036,362.539215 152.429886,361.805481 
	C150.468124,359.469238 149.132767,354.740936 145.353210,356.779633 
	C141.542511,358.835114 145.634705,362.190125 146.000000,365.000000 
	C97.693527,365.000000 49.387062,365.000000 1.040297,365.000000 
	C1.040297,243.760986 1.040297,122.521942 1.040297,1.000000 
	C93.354034,1.000000 185.708359,1.000000 278.495331,1.361240 
	C275.786133,6.863079 273.219330,12.046927 276.798889,18.108555 
	C277.239441,18.854607 276.953461,20.029686 276.695374,20.854233 
	C271.260468,15.510873 264.794220,14.203972 258.563446,17.014824 
	C252.840240,19.596704 250.204666,23.611923 250.980392,32.260273 
	C251.621307,39.405586 259.294220,45.859924 266.279114,44.954739 
	C274.699554,43.863522 281.479706,35.724541 279.841644,28.376890 
	C279.274139,25.831409 277.965332,23.451197 277.342316,21.029810 
	C278.510834,21.598658 279.428467,22.028736 280.138763,22.683687 
	C288.390015,30.292206 294.447357,29.861231 301.262268,21.241087 
	C302.013184,20.291250 303.146820,19.392618 304.279907,19.041948 
	C308.158539,17.841574 308.317200,15.837465 306.250458,12.740877 
	C303.698547,8.917413 301.405121,4.921438 299.000000,1.000001 
	C300.714355,1.000000 302.428711,1.000000 304.601990,1.356217 
	C306.916016,4.813585 308.546631,8.089268 310.748474,10.920774 
	C311.514282,11.905554 313.693115,11.791522 315.226593,12.179330 
	C315.372406,10.512610 315.924225,8.752035 315.565796,7.201896 
	C315.068695,5.051788 313.888031,3.059725 313.000000,0.999999 
	C487.218109,1.000000 661.436218,1.000000 836.000000,1.000000 
	C836.000000,47.020317 836.000000,93.041504 835.629028,139.493225 
	C834.643433,139.675888 833.966675,139.522659 833.423706,139.165817 
	C825.940979,134.247925 817.757019,137.792633 813.454773,142.981796 
	C808.901672,148.473450 808.841919,156.001846 813.650085,162.159805 
	C820.411804,170.819702 824.655518,171.738785 836.000000,167.000000 
	C836.000000,232.938660 836.000000,298.877319 836.000000,365.000000 
	C745.312500,365.000000 654.624939,365.000000 563.503845,364.649536 
	C570.173523,357.884094 571.514526,350.455231 567.343506,342.029968 
	C568.750122,342.834595 569.901489,343.504395 570.851746,344.390045 
	C578.041016,351.090607 585.859070,350.102325 591.142395,341.842773 
	C591.607300,341.115967 592.528320,340.680939 593.338562,340.029053 
	C596.024780,343.009857 595.436157,345.619507 592.828491,347.517029 
	C590.592590,349.144012 587.743225,349.908234 585.411438,351.431030 
	C584.100159,352.287292 583.287720,353.907440 582.250549,355.183441 
	C583.827026,355.782074 585.792664,357.290649 586.908813,356.813202 
	C590.645813,355.214661 594.450073,353.348755 597.537292,350.760651 
	C601.609863,347.346375 602.234680,341.426788 599.400024,337.154602 
	C594.910706,330.388458 590.171021,323.787323 585.483765,317.154205 
	C583.565247,314.439270 581.659790,314.535095 579.464600,317.102692 
	C578.358704,318.396179 576.732239,319.575378 575.119080,320.047668 
	C567.695923,322.220703 564.026550,328.447571 565.856140,336.164886 
	C566.313477,338.093689 566.625854,340.056885 566.698792,341.854431 
	C563.288330,339.979370 560.364441,337.613770 557.038086,336.676208 
	C551.810181,335.202637 547.402283,337.567169 543.929260,341.584167 
	C540.846436,345.149872 538.908875,349.099060 541.110291,353.800385 
	C542.897095,357.616211 545.023987,361.272797 547.000000,365.000000 
M616.292236,305.931030 
	C615.216980,305.180084 614.184570,304.356903 613.059082,303.690857 
	C608.337646,300.896942 603.479187,300.299103 598.502869,303.016388 
	C593.097839,305.967804 589.995911,310.625031 590.122559,316.698364 
	C590.278320,324.171875 599.099854,331.720947 606.069946,330.968109 
	C612.820740,330.238953 622.569153,322.415375 619.214844,312.964081 
	C618.789673,311.766205 619.051514,310.324463 619.635864,309.274841 
	C620.492920,309.776001 621.402954,310.205139 622.198853,310.789581 
	C629.299316,316.003448 635.196960,314.045807 639.282593,309.358551 
	C640.988892,307.401031 643.710999,306.354980 645.567444,304.492096 
	C646.611206,303.444733 647.782349,300.949951 647.272949,300.177612 
	C643.095825,293.843628 638.642090,287.679321 633.970337,281.699402 
	C633.334900,280.885986 631.029785,281.377014 629.497742,281.264099 
	C629.305847,285.398621 625.560730,284.775604 623.218201,286.174530 
	C620.772644,287.635040 618.380798,289.575378 616.703247,291.850006 
	C613.301392,296.462524 615.293945,301.308197 616.292236,305.931030 
M441.071289,188.883362 
	C439.426971,189.047577 437.601624,188.817474 436.181335,189.469589 
	C434.114563,190.418472 432.359528,192.032913 430.436462,193.310699 
	C424.951660,196.955063 425.108337,196.823257 421.251770,191.618790 
	C418.696747,188.170685 415.589844,185.131500 412.454315,181.027344 
	C412.454315,173.105331 412.454315,165.183304 412.454315,157.231842 
	C406.444885,157.231842 401.237946,157.231842 395.971069,157.231842 
	C395.971069,171.760986 395.600159,185.908051 396.082458,200.025986 
	C396.507111,212.455276 405.206940,221.455597 417.443237,223.342224 
	C426.726318,224.773499 434.666321,221.835190 441.752930,215.015930 
	C441.889526,218.008209 441.992493,220.263565 442.102448,222.672150 
	C447.665344,222.672150 453.043213,222.672150 459.050476,222.672150 
	C459.050476,207.564880 459.050476,192.787567 459.764984,177.917816 
	C465.659790,172.762619 465.278320,162.545319 458.879181,158.364761 
	C458.600067,157.803329 458.320923,157.241913 457.922852,156.018616 
	C456.740326,154.918259 455.716370,153.537857 454.349152,152.763626 
	C446.274536,148.191040 435.562012,152.223129 431.520477,161.240051 
	C428.711273,167.507492 434.384583,179.073090 441.872406,182.892563 
	C441.835510,184.919083 441.798615,186.945618 441.071289,188.883362 
M475.060547,164.935043 
	C475.060547,184.196075 475.060547,203.457108 475.060547,222.708282 
	C481.050446,222.708282 486.302307,222.708282 491.969177,222.708282 
	C491.969177,210.115021 491.859650,197.815292 492.004547,185.518570 
	C492.116333,176.033264 497.371033,170.790436 506.455963,170.657913 
	C515.638489,170.523956 520.953247,175.467834 521.211487,185.065140 
	C521.502747,195.890518 521.327515,206.728256 521.379517,217.560501 
	C521.387878,219.306381 521.523315,221.051666 521.592529,222.627213 
	C527.463928,222.627213 532.710327,222.627213 538.119080,222.627213 
	C538.119080,215.253601 538.029602,208.257278 538.144836,201.264343 
	C538.254395,194.615601 538.031372,187.893494 538.952576,181.344025 
	C539.991760,173.955292 545.766663,170.328293 554.012878,170.702972 
	C561.519958,171.044067 566.384644,175.121948 567.152649,182.444046 
	C567.706665,187.726669 567.587708,193.087250 567.632385,198.414200 
	C567.700439,206.521286 567.650208,214.629379 567.650208,222.713135 
	C573.534302,222.713135 578.786865,222.713135 583.954224,222.713135 
	C583.954224,207.616852 584.511780,192.786957 583.768616,178.022537 
	C583.224976,167.221634 575.202209,159.059052 564.911133,156.715607 
	C552.430969,153.873627 542.275208,157.597000 534.615234,167.929108 
	C523.533752,153.354691 509.330048,151.901703 491.933838,163.723740 
	C491.933838,161.364380 491.933838,159.249207 491.987885,156.348740 
	C493.826019,148.801590 491.944214,143.549835 485.885223,139.317383 
	C475.860107,146.318405 475.860107,146.318405 478.123077,149.982193 
	C480.151733,148.696106 482.174225,147.413925 484.092438,146.197861 
	C489.791992,149.395493 487.011688,153.008743 484.074036,156.760132 
	C482.324127,156.785507 480.514008,156.543060 478.842926,156.918915 
	C477.444183,157.233521 476.207947,158.270737 474.205719,158.917038 
	C472.091736,157.375717 469.632111,156.140594 467.937531,154.227722 
	C464.667511,150.536453 463.971893,144.108551 466.208557,140.699570 
	C469.002441,136.441315 472.767944,135.020584 477.846313,136.660690 
	C479.257629,137.116486 481.188141,135.964691 483.376190,135.429062 
	C477.482880,129.059128 468.229675,130.184402 463.170288,136.584045 
	C454.458130,147.604202 464.008575,162.790192 475.060547,164.935043 
M198.033646,101.402626 
	C200.930786,97.525902 200.917892,93.646057 196.575134,91.255058 
	C189.799194,87.524445 182.796661,84.094841 175.579727,81.355469 
	C173.830566,80.691536 170.197342,82.678696 168.727737,84.495903 
	C167.903717,85.514847 169.306641,88.967377 170.508636,90.795944 
	C171.506317,92.313675 173.619247,93.164192 175.340134,94.128143 
	C180.240082,96.872787 185.192139,99.524391 189.667877,102.681610 
	C188.478638,103.229897 187.289383,103.778191 185.819534,103.630463 
	C181.701416,99.006462 180.384445,98.809975 175.381882,102.101585 
	C171.808609,104.452759 168.267563,106.853882 164.667633,109.163353 
	C160.715195,111.698982 157.779419,114.717789 158.591965,120.379311 
	C158.061172,120.602539 157.530380,120.825775 157.001190,120.143036 
	C156.668686,116.691170 156.373413,113.235245 155.996948,109.788185 
	C154.688614,97.808601 153.454712,85.819427 151.979538,73.860176 
	C151.320892,68.520569 149.411713,67.187317 144.844345,68.031265 
	C141.551331,68.639732 139.671661,72.235252 140.178986,76.203995 
	C141.224976,84.386650 142.051254,92.597168 143.002472,100.792206 
	C144.029724,109.642265 145.096436,118.487747 145.704544,127.838982 
	C136.187302,133.332718 126.765236,139.001434 117.115005,144.250687 
	C111.826202,147.127548 109.337311,151.153503 109.401276,157.092621 
	C109.499954,166.255539 109.250244,175.426544 109.573578,184.579086 
	C109.638855,186.426849 111.151482,188.968948 112.749992,189.905792 
	C138.731003,205.132538 164.853638,220.117401 190.874237,235.277161 
	C193.211975,236.639145 194.869553,236.622513 197.163589,235.255325 
	C206.736465,229.550201 216.432388,224.051407 226.087875,218.485077 
	C237.848099,211.705399 249.613052,204.933899 261.993591,197.803146 
	C261.993591,203.313599 261.764252,208.099228 262.072205,212.850037 
	C262.286407,216.154816 261.080200,217.875397 258.240723,219.490540 
	C238.283676,230.842361 218.373581,242.280914 198.610596,253.965912 
	C195.047073,256.072845 192.495697,255.742340 189.160858,253.791779 
	C164.755249,239.516968 140.258530,225.397903 115.783295,211.242218 
	C113.876518,210.139389 111.914627,209.131866 109.459908,207.798416 
	C109.459908,212.556610 109.450760,216.374115 109.462181,220.191559 
	C109.477013,225.147537 111.754135,228.620117 116.071251,231.091690 
	C139.913513,244.741547 163.708786,258.473541 187.504898,272.203888 
	C191.954865,274.771515 196.235413,274.697388 200.698776,272.114471 
	C224.189041,258.520844 247.696350,244.956131 271.262238,231.494232 
	C276.399780,228.559433 278.878601,224.625717 278.787079,218.553513 
	C278.556122,203.228165 278.715729,187.896973 278.699738,172.568146 
	C278.698608,171.492905 278.541321,170.417816 278.421783,168.900009 
	C276.769592,169.770584 275.605713,170.337891 274.485291,170.981018 
	C248.809570,185.719009 223.158203,200.499802 197.418381,215.124924 
	C195.856888,216.012131 193.106812,216.547928 191.739822,215.776474 
	C170.585129,203.837738 149.558502,191.671616 128.547684,179.479767 
	C127.545044,178.897949 126.329422,177.613495 126.291588,176.615387 
	C126.075569,170.915741 126.186707,165.203705 126.186707,158.746948 
	C136.549133,164.688354 146.135864,169.998230 155.510376,175.659500 
	C158.872482,177.689896 161.408875,177.768326 164.886093,175.708313 
	C184.636505,164.007599 204.539520,152.563782 224.443192,141.124023 
	C225.857620,140.311081 228.105209,139.388458 229.261581,139.954544 
	C234.386261,142.463272 239.253830,145.497147 244.916733,148.743652 
	C222.085083,161.991974 200.023056,174.793716 177.278900,187.991272 
	C182.223618,190.899231 186.444336,193.177185 190.436691,195.802444 
	C193.015900,197.498474 195.030441,197.321671 197.662735,195.777069 
	C212.873993,186.851303 228.205246,178.130203 243.481339,169.314606 
	C254.685623,162.848801 265.867645,156.344345 277.800903,149.427414 
	C275.133484,147.362625 273.216553,145.512329 270.980865,144.208679 
	C258.184265,136.746796 245.238785,129.537506 232.515106,121.955040 
	C229.208191,119.984344 226.802094,120.003105 223.491013,121.958794 
	C203.868210,133.548965 184.110748,144.911606 164.362122,156.287476 
	C162.865631,157.149490 160.606506,158.492645 159.519897,157.955963 
	C154.140076,155.298843 149.035278,152.084885 143.305847,148.761078 
	C166.225327,135.551636 188.247757,122.859200 210.877228,109.816895 
	C206.099289,106.994080 202.010757,104.578568 198.033646,101.402626 
M664.900574,173.501801 
	C664.900574,168.065262 664.900574,162.628723 664.900574,157.074860 
	C658.988586,157.074860 653.731628,157.074860 648.172852,157.074860 
	C648.044922,159.935074 647.926392,162.587036 647.781921,165.818314 
	C633.594849,150.123825 609.498291,153.514633 600.111511,171.615494 
	C594.860168,181.741898 594.507202,192.494461 598.197998,203.108002 
	C606.622375,227.333618 633.745117,229.757706 646.516663,214.990402 
	C646.761047,214.707809 647.312683,214.690948 648.094788,214.421158 
	C648.094788,217.321838 648.094788,219.924759 648.094788,222.678299 
	C653.788879,222.678299 659.165955,222.678299 664.900452,222.678299 
	C664.900452,206.402710 664.900452,190.452042 664.900574,173.501801 
M339.192627,159.573227 
	C327.009003,167.501022 325.553772,182.345413 336.585236,189.676605 
	C340.364655,192.188309 345.083252,193.344528 349.452667,194.894791 
	C353.986359,196.503296 358.779480,197.469650 363.158936,199.398438 
	C367.488922,201.305496 367.493042,206.300186 363.558594,208.986130 
	C358.130341,212.691849 348.516937,210.240265 345.262360,204.426758 
	C344.715576,203.450012 343.612183,202.151932 342.714264,202.110016 
	C337.835083,201.882233 332.939697,202.001816 326.297913,202.001816 
	C328.894653,206.868622 330.211151,210.917084 332.784424,213.870544 
	C341.462006,223.830307 357.784851,226.998108 369.995941,221.624466 
	C384.022461,215.451935 387.123810,198.766510 375.521545,190.321732 
	C372.010437,187.766129 367.417389,186.636688 363.236633,185.077347 
	C358.422821,183.281876 353.337524,182.118546 348.705170,179.961288 
	C344.730408,178.110245 344.502289,173.395660 347.875519,171.014435 
	C352.626587,167.660522 362.809753,168.394608 365.201599,174.882874 
	C365.610565,175.992355 367.065918,177.401917 368.115906,177.470062 
	C372.557617,177.758301 377.028809,177.592209 381.493439,177.592209 
	C381.288300,168.543762 376.157410,161.121201 367.975006,158.045258 
	C358.477448,154.474930 349.062988,155.157700 339.192627,159.573227 
M237.454651,62.259811 
	C244.248840,63.886673 248.096344,61.728695 253.205276,53.191761 
	C255.564392,56.206646 256.020355,59.132496 252.914627,61.430634 
	C250.462219,63.245331 247.324234,64.108879 244.733856,65.773262 
	C243.610336,66.495163 243.097565,68.167641 242.307388,69.408379 
	C243.929047,70.068840 245.558289,71.265633 247.170288,71.242828 
	C248.870056,71.218788 250.593048,70.114372 252.236984,69.336372 
	C259.115448,66.081123 263.315613,58.220043 260.105865,52.676609 
	C255.650620,44.982021 250.219620,37.837307 244.927628,30.662767 
	C244.314545,29.831581 240.711823,29.839056 240.552551,30.251740 
	C239.018570,34.226318 235.095810,33.927078 232.246368,35.534809 
	C230.214752,36.681099 228.097137,38.494850 227.115051,40.538090 
	C223.070023,48.953892 227.346359,58.197769 237.454651,62.259811 
M624.696289,35.840939 
	C623.056091,34.710815 621.436096,33.550045 619.771484,32.457115 
	C616.503357,30.311380 613.638794,30.608519 610.991028,34.011848 
	C615.445984,40.544235 619.656921,47.081139 624.284973,53.308067 
	C625.902649,55.484646 626.950012,60.809940 630.741028,58.104931 
	C634.050842,55.743286 630.045776,52.597717 628.536804,50.118862 
	C626.584595,46.911537 624.291016,43.911972 622.144409,40.822956 
	C627.660889,42.966896 632.266541,45.873108 637.009583,48.534630 
	C638.566711,49.408394 640.479736,49.647751 642.229980,50.177231 
	C642.637512,48.069096 643.553223,45.910603 643.350342,43.862965 
	C642.878967,39.106659 641.867798,34.403843 641.075439,29.679348 
	C641.543823,29.495016 642.012268,29.310686 642.480713,29.126354 
	C645.140320,33.010609 647.691650,36.977222 650.538025,40.719402 
	C651.223450,41.620541 652.886780,41.777893 654.100403,42.277267 
	C654.533813,40.865788 655.790161,38.908192 655.272461,38.127956 
	C650.520996,30.968077 645.529480,23.962296 640.409302,17.058899 
	C639.748596,16.167984 637.610535,15.421271 636.771973,15.839924 
	C635.558167,16.445902 634.549500,18.067972 634.125488,19.461145 
	C633.780457,20.594851 634.372986,22.039125 634.635376,23.328249 
	C635.998718,30.026878 637.389465,36.719925 638.984680,44.452438 
	C635.926086,42.522671 633.880615,41.193470 631.796448,39.927929 
	C629.669983,38.636642 627.505554,37.407871 624.696289,35.840939 
M256.001556,296.532043 
	C254.646652,295.915100 253.291748,295.298187 251.936859,294.681244 
	C250.286026,299.436066 245.040649,299.054474 242.003922,301.693146 
	C239.894424,303.526062 237.855148,306.116028 237.128448,308.739990 
	C234.755890,317.306854 240.111557,322.843658 245.332520,326.091583 
	C251.261749,329.780121 257.176514,328.218292 261.345154,322.491730 
	C262.341187,321.123444 263.766296,319.418945 265.225830,319.156158 
	C269.938293,318.307648 269.779968,316.120148 267.557678,312.936646 
	C263.865631,307.647583 260.162170,302.366394 256.001556,296.532043 
M212.001389,331.262909 
	C212.948547,344.062531 226.957962,348.693542 235.627197,341.802307 
	C240.920975,337.594299 242.501556,330.655273 239.765640,324.738922 
	C236.616684,317.929352 230.210464,314.699463 222.563309,316.065887 
	C216.127502,317.215881 212.359772,322.334137 212.001389,331.262909 
M229.186096,60.769306 
	C228.438965,59.477158 227.759979,58.139473 226.932465,56.901031 
	C223.918381,52.390263 219.343597,50.188229 214.241409,50.261776 
	C207.988892,50.351910 202.191132,55.765648 201.084930,61.383457 
	C199.746460,68.180901 202.933395,75.164978 208.723343,78.360130 
	C214.259232,81.415070 219.142044,80.085121 224.020126,76.653473 
	C229.494827,72.802139 230.916611,67.680405 229.186096,60.769306 
M497.676117,112.697189 
	C491.287720,115.399635 487.244659,120.293686 487.180725,127.100357 
	C487.115967,133.990784 491.365448,139.197891 496.958862,142.888199 
	C501.897156,146.146271 508.362244,145.418884 512.750793,141.730911 
	C519.428223,136.119431 521.705872,130.494019 518.921753,124.504364 
	C515.122498,116.330605 511.195770,110.194519 497.676117,112.697189 
M586.997559,56.643967 
	C586.311890,64.691040 590.897949,69.930634 597.166077,73.380402 
	C604.193604,77.248131 611.574707,74.580933 617.133362,67.310875 
	C620.632507,62.734398 619.385498,53.559166 614.511047,48.016068 
	C609.681213,42.523872 603.631165,40.189518 598.178162,42.575489 
	C592.470886,45.072720 587.353943,48.534912 586.997559,56.643967 
M522.087280,95.562866 
	C521.106140,97.334526 519.001526,99.351311 519.325928,100.838112 
	C521.448608,110.566605 524.096863,120.180420 526.638000,130.083496 
	C529.841125,129.177124 531.330200,128.109283 530.549500,124.697868 
	C530.101990,122.742470 530.354309,119.704193 531.598755,118.439445 
	C537.955994,111.978180 539.596863,111.970840 547.388672,116.861282 
	C548.511292,115.921906 549.704468,114.923561 551.297241,113.590775 
	C543.293640,108.219505 535.782898,103.131393 528.212036,98.134377 
	C526.495911,97.001656 524.571167,96.185028 522.087280,95.562866 
M563.121460,85.258774 
	C570.591125,95.886208 580.819092,97.254440 588.142029,88.060875 
	C590.240356,85.426590 590.532410,81.247864 591.223999,77.693871 
	C591.352356,77.034126 589.429932,75.975296 588.453979,75.100647 
	C587.777832,76.333961 587.001404,77.523994 586.446289,78.809586 
	C585.291138,81.485275 584.989441,85.073288 583.025452,86.751457 
	C577.661011,91.335144 571.427612,89.269012 567.078552,82.123863 
	C564.785034,78.355797 563.792419,74.363335 566.404968,70.386627 
	C569.110596,66.268082 573.040039,65.311035 577.780212,66.325851 
	C579.347778,66.661461 581.131531,65.987747 583.530029,65.685631 
	C578.254761,59.761505 572.238953,59.587654 566.329407,64.185638 
	C559.081909,69.824661 557.789612,77.266579 563.121460,85.258774 
M807.472717,186.022278 
	C819.300781,178.177063 819.300781,178.177063 817.684448,173.657639 
	C812.982422,176.756699 808.392944,179.781601 803.748962,182.842407 
	C798.527283,175.450119 793.481506,168.306808 788.204895,160.836807 
	C786.616943,161.832184 785.317566,162.646683 783.775452,163.613312 
	C790.081238,172.488800 796.050293,180.890289 802.102173,189.408432 
	C804.102234,188.185791 805.502014,187.330093 807.472717,186.022278 
M197.159775,70.318604 
	C194.434067,66.384850 191.894440,62.298954 188.874527,58.605759 
	C187.910172,57.426388 185.672302,57.288349 184.017136,56.673851 
	C183.936752,58.509384 183.077911,60.866173 183.901611,62.096359 
	C189.498291,70.454826 195.365387,78.638794 201.386826,86.698540 
	C202.194885,87.780128 204.360245,87.847687 205.897064,88.384819 
	C206.022934,86.560898 206.907761,84.280296 206.135483,82.996811 
	C203.597610,78.778984 200.458618,74.922859 197.159775,70.318604 
M270.842041,298.634918 
	C268.921539,295.953979 267.237457,293.044281 264.968994,290.700012 
	C264.005615,289.704468 261.817444,289.894073 260.185913,289.545074 
	C260.202484,291.174500 259.602722,293.190216 260.340576,294.367645 
	C263.846039,299.961517 267.591858,305.420319 271.559631,310.695953 
	C272.362244,311.763092 274.494659,311.830078 276.013947,312.358185 
	C276.302795,310.495575 277.387726,308.247620 276.712158,306.851807 
	C275.371582,304.082123 273.060242,301.782257 270.842041,298.634918 
M640.513733,282.874451 
	C643.855164,287.591064 647.076660,292.401398 650.632812,296.950134 
	C651.400146,297.931702 653.372925,297.970795 654.790466,298.444031 
	C655.128723,296.920532 656.269226,294.888397 655.677185,293.954742 
	C651.304993,287.058899 646.587524,280.382019 641.958862,273.607330 
	C637.090454,277.303223 637.079773,277.398193 640.513733,282.874451 
M542.837158,95.673615 
	C545.899292,99.971809 549.097107,104.181564 551.976074,108.599136 
	C553.908752,111.564697 555.610352,111.233978 558.051147,108.879028 
	C556.417664,106.392090 554.938965,104.044998 553.364868,101.763741 
	C549.710815,96.468018 546.119812,91.121231 542.232178,86.000946 
	C541.502258,85.039650 539.513000,85.034523 538.104980,84.588165 
	C538.175110,86.025322 537.830383,87.662193 538.405212,88.856377 
	C539.467285,91.062675 541.068420,93.009506 542.837158,95.673615 
M156.449921,78.159149 
	C156.714371,80.333717 156.273300,83.015358 157.393967,84.574524 
	C159.553207,87.578690 162.680725,87.523003 165.509857,84.940750 
	C168.330338,82.366394 168.653198,78.500198 165.702194,76.412636 
	C162.759659,74.331055 159.354080,73.445587 156.449921,78.159149 
M635.491150,266.106964 
	C634.374084,267.325104 632.830994,268.394043 632.328918,269.827576 
	C632.095703,270.493225 633.781372,272.581116 634.787720,272.729248 
	C635.891479,272.891693 638.298218,271.443573 638.239502,270.904022 
	C638.063171,269.286255 636.961182,267.769318 635.491150,266.106964 
M259.036438,281.590118 
	C257.340607,281.631653 255.604492,281.492767 253.980392,281.855408 
	C253.622879,281.935272 253.172241,284.222839 253.625763,284.743469 
	C254.474335,285.717560 255.953278,286.142578 257.169983,286.795990 
	C257.941559,285.250824 258.713104,283.705658 259.036438,281.590118 
M561.556641,102.818558 
	C564.191223,105.082222 566.281128,104.007774 567.437439,101.370796 
	C567.686218,100.803665 565.759399,98.497284 564.565552,98.239700 
	C561.723572,97.626480 560.739014,99.453072 561.556641,102.818558 
z"/>
<path fill="#F1F1F1" opacity="1.000000" stroke="none" 
	d="
M212.444153,365.000000 
	C212.856079,363.639099 213.986389,362.373596 214.501053,360.893921 
	C215.194794,358.899445 215.414444,356.740021 215.837540,354.651398 
	C215.321930,354.506134 214.806320,354.360870 214.290726,354.215576 
	C212.390121,356.363708 210.817612,358.983734 208.529541,360.574493 
	C200.546478,366.124634 188.312683,359.966644 187.016785,349.957581 
	C185.951813,341.732117 189.202026,336.702942 197.120316,334.079163 
	C198.211960,333.717438 199.376175,332.961823 200.047043,332.050201 
	C202.823242,328.277954 204.417374,328.052673 207.170837,331.804199 
	C211.575119,337.804993 215.833328,343.917725 219.999008,350.087280 
	C223.117371,354.705750 222.509354,359.501709 220.040192,364.616028 
	C217.629440,365.000000 215.258896,365.000000 212.444153,365.000000 
M194.487289,342.171692 
	C192.213699,345.849091 192.108704,349.700958 195.315994,352.565765 
	C197.417801,354.443176 200.916718,356.560913 203.152969,356.005646 
	C205.686600,355.376556 208.509262,352.218353 209.406952,349.553650 
	C210.775696,345.490540 207.647415,342.465149 204.399597,340.275726 
	C200.999191,337.983398 197.810593,338.837219 194.487289,342.171692 
z"/>
<path fill="#F1F1F1" opacity="1.000000" stroke="none" 
	d="
M566.995117,341.995117 
	C571.514526,350.455231 570.173523,357.884094 563.035156,364.649536 
	C557.977905,365.000000 552.955811,365.000000 547.466858,365.000000 
	C545.023987,361.272797 542.897095,357.616211 541.110291,353.800385 
	C538.908875,349.099060 540.846436,345.149872 543.929260,341.584167 
	C547.402283,337.567169 551.810181,335.202637 557.038086,336.676208 
	C560.364441,337.613770 563.288330,339.979370 566.696350,341.852325 
	C567.000000,342.000000 566.995117,341.995117 566.995117,341.995117 
M551.578003,342.984741 
	C547.047852,345.802246 545.610474,350.045990 547.784180,354.185547 
	C549.875427,358.168091 554.602478,360.692444 557.835693,359.553345 
	C562.120117,358.043884 564.190613,353.395752 562.714050,348.601898 
	C561.312988,344.053162 557.375122,341.852783 551.578003,342.984741 
z"/>
<path fill="#F1F1F1" opacity="1.000000" stroke="none" 
	d="
M277.004211,21.005947 
	C276.953461,20.029686 277.239441,18.854607 276.798889,18.108555 
	C273.219330,12.046927 275.786133,6.863079 278.963989,1.361240 
	C285.354401,1.000000 291.708801,1.000000 298.531616,1.000001 
	C301.405121,4.921438 303.698547,8.917413 306.250458,12.740877 
	C308.317200,15.837465 308.158539,17.841574 304.279907,19.041948 
	C303.146820,19.392618 302.013184,20.291250 301.262268,21.241087 
	C294.447357,29.861231 288.390015,30.292206 280.138763,22.683687 
	C279.428467,22.028736 278.510834,21.598658 277.344757,21.032085 
	C277.000000,21.000050 277.004211,21.005945 277.004211,21.005947 
M290.197083,4.997128 
	C286.802551,4.612468 283.428589,5.212357 282.433075,8.742631 
	C281.425507,12.315716 281.044556,16.221016 284.645721,19.214258 
	C287.624298,21.690002 290.960449,22.824554 294.090027,20.641228 
	C295.959229,19.337202 297.731262,16.454977 297.760742,14.258214 
	C297.818634,9.943829 295.651245,6.350083 290.197083,4.997128 
z"/>
<path fill="#FFFFFF" opacity="1.000000" stroke="none" 
	d="
M836.000000,147.000000 
	C836.000000,151.689255 836.000000,156.378510 835.630737,161.569519 
	C824.096863,168.495377 820.032959,163.089050 816.057434,155.943146 
	C813.617188,151.556732 814.910461,146.895447 818.646057,143.918121 
	C822.209473,141.078018 827.858093,141.193329 831.577087,144.081284 
	C832.968079,145.161469 834.520935,146.033203 836.000000,147.000000 
z"/>
<path fill="#F1F1F1" opacity="1.000000" stroke="none" 
	d="
M836.000000,146.562500 
	C834.520935,146.033203 832.968079,145.161469 831.577087,144.081284 
	C827.858093,141.193329 822.209473,141.078018 818.646057,143.918121 
	C814.910461,146.895447 813.617188,151.556732 816.057434,155.943146 
	C820.032959,163.089050 824.096863,168.495377 835.630737,162.035629 
	C836.000000,163.388885 836.000000,164.777786 836.000000,166.583344 
	C824.655518,171.738785 820.411804,170.819702 813.650085,162.159805 
	C808.841919,156.001846 808.901672,148.473450 813.454773,142.981796 
	C817.757019,137.792633 825.940979,134.247925 833.423706,139.165817 
	C833.966675,139.522659 834.643433,139.675888 835.629028,139.961884 
	C836.000000,142.041672 836.000000,144.083328 836.000000,146.562500 
z"/>
<path fill="#F1F1F1" opacity="1.000000" stroke="none" 
	d="
M162.428467,365.000000 
	C162.158386,356.477600 167.714813,350.641266 176.115417,350.173523 
	C182.805801,349.800995 189.864426,356.462799 190.999619,364.610260 
	C189.285645,365.000000 187.571289,365.000000 185.392288,364.645752 
	C182.369904,358.662567 178.288254,355.129150 174.786194,356.337158 
	C170.928131,357.667999 167.622330,360.054962 168.000000,365.000000 
	C166.285645,365.000000 164.571289,365.000000 162.428467,365.000000 
z"/>
<path fill="#F1F1F1" opacity="1.000000" stroke="none" 
	d="
M535.437500,365.000000 
	C531.605286,359.779388 528.214111,354.556549 524.812378,349.340485 
	C524.275574,348.517303 523.203186,347.705627 523.233948,346.922241 
	C523.293152,345.415466 523.964661,343.932770 524.382263,342.440063 
	C525.671509,342.877441 527.527649,342.916473 528.159607,343.815765 
	C532.888184,350.544281 537.374817,357.442810 541.968628,364.644043 
	C539.958313,365.000000 537.916687,365.000000 535.437500,365.000000 
z"/>
<path fill="#F1F1F1" opacity="1.000000" stroke="none" 
	d="
M480.463196,365.000000 
	C480.007690,363.029297 479.762848,361.017181 480.077545,359.096802 
	C480.669617,355.484100 483.026215,353.921082 486.686157,353.964813 
	C490.068146,354.005188 491.877258,355.380432 492.042664,358.904114 
	C492.125854,360.676025 492.653564,362.427124 492.990143,364.593811 
	C488.975464,365.000000 484.950897,365.000000 480.463196,365.000000 
z"/>
<path fill="#FEFEFE" opacity="1.000000" stroke="none" 
	d="
M168.467606,365.000000 
	C167.622330,360.054962 170.928131,357.667999 174.786194,356.337158 
	C178.288254,355.129150 182.369904,358.662567 184.963821,364.645752 
	C179.645065,365.000000 174.290146,365.000000 168.467606,365.000000 
z"/>
<path fill="#F1F1F1" opacity="1.000000" stroke="none" 
	d="
M312.555847,0.999999 
	C313.888031,3.059725 315.068695,5.051788 315.565796,7.201896 
	C315.924225,8.752035 315.372406,10.512610 315.226593,12.179330 
	C313.693115,11.791522 311.514282,11.905554 310.748474,10.920774 
	C308.546631,8.089268 306.916016,4.813585 305.030457,1.356217 
	C307.370575,1.000000 309.741119,1.000000 312.555847,0.999999 
z"/>
<path fill="#F1F1F1" opacity="1.000000" stroke="none" 
	d="
M146.444168,365.000000 
	C145.634705,362.190125 141.542511,358.835114 145.353210,356.779633 
	C149.132767,354.740936 150.468124,359.469238 152.429886,361.805481 
	C153.046036,362.539215 153.435867,363.462982 153.964630,364.649902 
	C151.629440,365.000000 149.258896,365.000000 146.444168,365.000000 
z"/>
<path fill="#F1F1F1" opacity="1.000000" stroke="none" 
	d="
M496.458069,365.000000 
	C498.498291,359.576385 503.330200,359.247772 506.957855,364.628845 
	C503.638702,365.000000 500.277435,365.000000 496.458069,365.000000 
z"/>
<path fill="#E5583A" opacity="1.000000" stroke="none" 
	d="
M156.999588,121.049011 
	C157.530380,120.825775 158.061172,120.602539 159.137100,120.103897 
	C168.488205,114.661140 177.294159,109.493813 186.100128,104.326477 
	C187.289383,103.778191 188.478638,103.229897 190.326492,102.401611 
	C193.297485,102.135429 195.609848,102.149246 197.922226,102.163055 
	C202.010757,104.578568 206.099289,106.994080 210.877228,109.816895 
	C188.247757,122.859200 166.225327,135.551636 143.305847,148.761078 
	C149.035278,152.084885 154.140076,155.298843 159.519897,157.955963 
	C160.606506,158.492645 162.865631,157.149490 164.362122,156.287476 
	C184.110748,144.911606 203.868210,133.548965 223.491013,121.958794 
	C226.802094,120.003105 229.208191,119.984344 232.515106,121.955040 
	C245.238785,129.537506 258.184265,136.746796 270.980865,144.208679 
	C273.216553,145.512329 275.133484,147.362625 277.800903,149.427414 
	C265.867645,156.344345 254.685623,162.848801 243.481339,169.314606 
	C228.205246,178.130203 212.873993,186.851303 197.662735,195.777069 
	C195.030441,197.321671 193.015900,197.498474 190.436691,195.802444 
	C186.444336,193.177185 182.223618,190.899231 177.278900,187.991272 
	C200.023056,174.793716 222.085083,161.991974 244.916733,148.743652 
	C239.253830,145.497147 234.386261,142.463272 229.261581,139.954544 
	C228.105209,139.388458 225.857620,140.311081 224.443192,141.124023 
	C204.539520,152.563782 184.636505,164.007599 164.886093,175.708313 
	C161.408875,177.768326 158.872482,177.689896 155.510376,175.659500 
	C146.135864,169.998230 136.549133,164.688354 126.186707,158.746948 
	C126.186707,165.203705 126.075569,170.915741 126.291588,176.615387 
	C126.329422,177.613495 127.545044,178.897949 128.547684,179.479767 
	C149.558502,191.671616 170.585129,203.837738 191.739822,215.776474 
	C193.106812,216.547928 195.856888,216.012131 197.418381,215.124924 
	C223.158203,200.499802 248.809570,185.719009 274.485291,170.981018 
	C275.605713,170.337891 276.769592,169.770584 278.421783,168.900009 
	C278.541321,170.417816 278.698608,171.492905 278.699738,172.568146 
	C278.715729,187.896973 278.556122,203.228165 278.787079,218.553513 
	C278.878601,224.625717 276.399780,228.559433 271.262238,231.494232 
	C247.696350,244.956131 224.189041,258.520844 200.698776,272.114471 
	C196.235413,274.697388 191.954865,274.771515 187.504898,272.203888 
	C163.708786,258.473541 139.913513,244.741547 116.071251,231.091690 
	C111.754135,228.620117 109.477013,225.147537 109.462181,220.191559 
	C109.450760,216.374115 109.459908,212.556610 109.459908,207.798416 
	C111.914627,209.131866 113.876518,210.139389 115.783295,211.242218 
	C140.258530,225.397903 164.755249,239.516968 189.160858,253.791779 
	C192.495697,255.742340 195.047073,256.072845 198.610596,253.965912 
	C218.373581,242.280914 238.283676,230.842361 258.240723,219.490540 
	C261.080200,217.875397 262.286407,216.154816 262.072205,212.850037 
	C261.764252,208.099228 261.993591,203.313599 261.993591,197.803146 
	C249.613052,204.933899 237.848099,211.705399 226.087875,218.485077 
	C216.432388,224.051407 206.736465,229.550201 197.163589,235.255325 
	C194.869553,236.622513 193.211975,236.639145 190.874237,235.277161 
	C164.853638,220.117401 138.731003,205.132538 112.749992,189.905792 
	C111.151482,188.968948 109.638855,186.426849 109.573578,184.579086 
	C109.250244,175.426544 109.499954,166.255539 109.401276,157.092621 
	C109.337311,151.153503 111.826202,147.127548 117.115005,144.250687 
	C126.765236,139.001434 136.187302,133.332718 146.265869,127.484802 
	C150.217987,125.103416 153.608780,123.076210 156.999588,121.049011 
z"/>
<path fill="#E5593A" opacity="1.000000" stroke="none" 
	d="
M491.933838,157.134033 
	C491.933838,159.249207 491.933838,161.364380 491.933838,163.723740 
	C509.330048,151.901703 523.533752,153.354691 534.615234,167.929108 
	C542.275208,157.597000 552.430969,153.873627 564.911133,156.715607 
	C575.202209,159.059052 583.224976,167.221634 583.768616,178.022537 
	C584.511780,192.786957 583.954224,207.616852 583.954224,222.713135 
	C578.786865,222.713135 573.534302,222.713135 567.650208,222.713135 
	C567.650208,214.629379 567.700439,206.521286 567.632385,198.414200 
	C567.587708,193.087250 567.706665,187.726669 567.152649,182.444046 
	C566.384644,175.121948 561.519958,171.044067 554.012878,170.702972 
	C545.766663,170.328293 539.991760,173.955292 538.952576,181.344025 
	C538.031372,187.893494 538.254395,194.615601 538.144836,201.264343 
	C538.029602,208.257278 538.119080,215.253601 538.119080,222.627213 
	C532.710327,222.627213 527.463928,222.627213 521.592529,222.627213 
	C521.523315,221.051666 521.387878,219.306381 521.379517,217.560501 
	C521.327515,206.728256 521.502747,195.890518 521.211487,185.065140 
	C520.953247,175.467834 515.638489,170.523956 506.455963,170.657913 
	C497.371033,170.790436 492.116333,176.033264 492.004547,185.518570 
	C491.859650,197.815292 491.969177,210.115021 491.969177,222.708282 
	C486.302307,222.708282 481.050446,222.708282 475.060547,222.708282 
	C475.060547,203.457108 475.060547,184.196075 475.058472,164.059189 
	C475.004211,161.784882 474.951996,160.386444 474.899780,158.987991 
	C476.207947,158.270737 477.444183,157.233521 478.842926,156.918915 
	C480.514008,156.543060 482.324127,156.785507 484.939728,156.774277 
	C487.848236,156.903625 489.891022,157.018829 491.933838,157.134033 
z"/>
<path fill="#E5583A" opacity="1.000000" stroke="none" 
	d="
M664.900513,174.001587 
	C664.900452,190.452042 664.900452,206.402710 664.900452,222.678299 
	C659.165955,222.678299 653.788879,222.678299 648.094788,222.678299 
	C648.094788,219.924759 648.094788,217.321838 648.094788,214.421158 
	C647.312683,214.690948 646.761047,214.707809 646.516663,214.990402 
	C633.745117,229.757706 606.622375,227.333618 598.197998,203.108002 
	C594.507202,192.494461 594.860168,181.741898 600.111511,171.615494 
	C609.498291,153.514633 633.594849,150.123825 647.781921,165.818314 
	C647.926392,162.587036 648.044922,159.935074 648.172852,157.074860 
	C653.731628,157.074860 658.988586,157.074860 664.900574,157.074860 
	C664.900574,162.628723 664.900574,168.065262 664.900513,174.001587 
M613.034180,189.507172 
	C613.945374,200.746979 619.608582,208.093048 628.045471,208.979172 
	C636.130127,209.828308 642.978088,206.104507 645.953308,199.241211 
	C649.655090,190.701859 647.797119,179.791916 641.845764,174.830872 
	C636.513672,170.386078 630.508911,169.472290 624.156738,171.861710 
	C616.529602,174.730728 613.674866,181.008835 613.034180,189.507172 
z"/>
<path fill="#E5583A" opacity="1.000000" stroke="none" 
	d="
M459.050476,178.010254 
	C459.050476,192.787567 459.050476,207.564880 459.050476,222.672150 
	C453.043213,222.672150 447.665344,222.672150 442.102448,222.672150 
	C441.992493,220.263565 441.889526,218.008209 441.752930,215.015930 
	C434.666321,221.835190 426.726318,224.773499 417.443237,223.342224 
	C405.206940,221.455597 396.507111,212.455276 396.082458,200.025986 
	C395.600159,185.908051 395.971069,171.760986 395.971069,157.231842 
	C401.237946,157.231842 406.444885,157.231842 412.454315,157.231842 
	C412.454315,165.183304 412.454315,173.105331 412.425476,181.899246 
	C412.470703,185.195023 412.544769,187.618881 412.506317,190.427002 
	C412.596771,195.951416 412.474518,201.179382 416.470306,205.253616 
	C420.330719,209.189835 427.786560,210.616318 433.142639,208.425797 
	C439.093292,205.992111 441.928040,200.593643 441.839172,191.645935 
	C441.868896,190.503372 441.815308,189.737747 441.761719,188.972137 
	C441.798615,186.945618 441.835510,184.919083 441.881439,182.028717 
	C441.848083,179.102005 441.805695,177.039169 441.827332,174.514114 
	C441.849823,168.708954 441.808289,163.365982 442.020813,157.654663 
	C447.530518,157.084366 452.786133,156.882431 458.041779,156.680496 
	C458.320923,157.241913 458.600067,157.803329 458.870972,159.137146 
	C458.925323,165.943100 458.987915,171.976669 459.050476,178.010254 
z"/>
<path fill="#E6593B" opacity="1.000000" stroke="none" 
	d="
M339.507996,159.369202 
	C349.062988,155.157700 358.477448,154.474930 367.975006,158.045258 
	C376.157410,161.121201 381.288300,168.543762 381.493439,177.592209 
	C377.028809,177.592209 372.557617,177.758301 368.115906,177.470062 
	C367.065918,177.401917 365.610565,175.992355 365.201599,174.882874 
	C362.809753,168.394608 352.626587,167.660522 347.875519,171.014435 
	C344.502289,173.395660 344.730408,178.110245 348.705170,179.961288 
	C353.337524,182.118546 358.422821,183.281876 363.236633,185.077347 
	C367.417389,186.636688 372.010437,187.766129 375.521545,190.321732 
	C387.123810,198.766510 384.022461,215.451935 369.995941,221.624466 
	C357.784851,226.998108 341.462006,223.830307 332.784424,213.870544 
	C330.211151,210.917084 328.894653,206.868622 326.297913,202.001816 
	C332.939697,202.001816 337.835083,201.882233 342.714264,202.110016 
	C343.612183,202.151932 344.715576,203.450012 345.262360,204.426758 
	C348.516937,210.240265 358.130341,212.691849 363.558594,208.986130 
	C367.493042,206.300186 367.488922,201.305496 363.158936,199.398438 
	C358.779480,197.469650 353.986359,196.503296 349.452667,194.894791 
	C345.083252,193.344528 340.364655,192.188309 336.585236,189.676605 
	C325.553772,182.345413 327.009003,167.501022 339.507996,159.369202 
z"/>
<path fill="#F0F0F0" opacity="1.000000" stroke="none" 
	d="
M157.000397,120.596024 
	C153.608780,123.076210 150.217987,125.103416 146.486557,127.232925 
	C145.096436,118.487747 144.029724,109.642265 143.002472,100.792206 
	C142.051254,92.597168 141.224976,84.386650 140.178986,76.203995 
	C139.671661,72.235252 141.551331,68.639732 144.844345,68.031265 
	C149.411713,67.187317 151.320892,68.520569 151.979538,73.860176 
	C153.454712,85.819427 154.688614,97.808601 155.996948,109.788185 
	C156.373413,113.235245 156.668686,116.691170 157.000397,120.596024 
z"/>
<path fill="#F1F1F1" opacity="1.000000" stroke="none" 
	d="
M237.077362,62.156452 
	C227.346359,58.197769 223.070023,48.953892 227.115051,40.538090 
	C228.097137,38.494850 230.214752,36.681099 232.246368,35.534809 
	C235.095810,33.927078 239.018570,34.226318 240.552551,30.251740 
	C240.711823,29.839056 244.314545,29.831581 244.927628,30.662767 
	C250.219620,37.837307 255.650620,44.982021 260.105865,52.676609 
	C263.315613,58.220043 259.115448,66.081123 252.236984,69.336372 
	C250.593048,70.114372 248.870056,71.218788 247.170288,71.242828 
	C245.558289,71.265633 243.929047,70.068840 242.307388,69.408371 
	C243.097565,68.167641 243.610336,66.495163 244.733856,65.773262 
	C247.324234,64.108879 250.462219,63.245331 252.914627,61.430634 
	C256.020355,59.132496 255.564392,56.206646 253.205276,53.191761 
	C248.096344,61.728695 244.248840,63.886673 237.077362,62.156452 
M241.029160,39.146328 
	C236.287872,38.600803 233.335861,40.844326 232.145569,45.264660 
	C231.114914,49.092167 233.875992,53.988922 237.799042,55.911411 
	C242.240509,58.087952 247.571915,55.062809 248.010849,50.181049 
	C248.469284,45.082516 246.411987,41.509468 241.029160,39.146328 
z"/>
<path fill="#F1F1F1" opacity="1.000000" stroke="none" 
	d="
M567.002441,342.002136 
	C566.625854,340.056885 566.313477,338.093689 565.856140,336.164886 
	C564.026550,328.447571 567.695923,322.220703 575.119080,320.047668 
	C576.732239,319.575378 578.358704,318.396179 579.464600,317.102692 
	C581.659790,314.535095 583.565247,314.439270 585.483765,317.154205 
	C590.171021,323.787323 594.910706,330.388458 599.400024,337.154602 
	C602.234680,341.426788 601.609863,347.346375 597.537292,350.760651 
	C594.450073,353.348755 590.645813,355.214661 586.908813,356.813202 
	C585.792664,357.290649 583.827026,355.782074 582.250549,355.183441 
	C583.287720,353.907440 584.100159,352.287292 585.411438,351.431030 
	C587.743225,349.908234 590.592590,349.144012 592.828491,347.517029 
	C595.436157,345.619507 596.024780,343.009857 593.338562,340.029053 
	C592.528320,340.680939 591.607300,341.115967 591.142395,341.842773 
	C585.859070,350.102325 578.041016,351.090607 570.851746,344.390045 
	C569.901489,343.504395 568.750122,342.834595 567.343506,342.029968 
	C566.995117,341.995117 567.000000,342.000000 567.002441,342.002136 
M578.148987,341.889069 
	C578.977661,341.926971 579.809021,342.027679 580.634583,341.992493 
	C585.921143,341.767151 588.139771,339.392792 588.001709,334.153381 
	C587.874084,329.312927 583.661377,324.890228 579.301514,325.019379 
	C574.872620,325.150543 571.180176,329.021637 572.214355,333.760651 
	C572.838318,336.619507 575.603882,339.010986 578.148987,341.889069 
z"/>
<path fill="#F1F1F1" opacity="1.000000" stroke="none" 
	d="
M625.026978,35.996338 
	C627.505554,37.407871 629.669983,38.636642 631.796448,39.927929 
	C633.880615,41.193470 635.926086,42.522671 638.984680,44.452438 
	C637.389465,36.719925 635.998718,30.026878 634.635376,23.328249 
	C634.372986,22.039125 633.780457,20.594851 634.125488,19.461145 
	C634.549500,18.067972 635.558167,16.445902 636.771973,15.839924 
	C637.610535,15.421271 639.748596,16.167984 640.409302,17.058899 
	C645.529480,23.962296 650.520996,30.968077 655.272461,38.127956 
	C655.790161,38.908192 654.533813,40.865788 654.100403,42.277275 
	C652.886780,41.777893 651.223450,41.620541 650.538025,40.719402 
	C647.691650,36.977222 645.140320,33.010609 642.480713,29.126354 
	C642.012268,29.310686 641.543823,29.495016 641.075439,29.679348 
	C641.867798,34.403843 642.878967,39.106659 643.350342,43.862965 
	C643.553223,45.910603 642.637512,48.069096 642.229980,50.177231 
	C640.479736,49.647751 638.566711,49.408394 637.009583,48.534630 
	C632.266541,45.873108 627.660889,42.966896 622.144409,40.822956 
	C624.291016,43.911972 626.584595,46.911537 628.536804,50.118862 
	C630.045776,52.597717 634.050842,55.743286 630.741028,58.104931 
	C626.950012,60.809940 625.902649,55.484646 624.284973,53.308067 
	C619.656921,47.081139 615.445984,40.544235 610.991028,34.011848 
	C613.638794,30.608519 616.503357,30.311380 619.771484,32.457115 
	C621.436096,33.550045 623.056091,34.710815 625.026978,35.996338 
z"/>
<path fill="#F1F1F1" opacity="1.000000" stroke="none" 
	d="
M617.004883,306.004639 
	C615.293945,301.308197 613.301392,296.462524 616.703247,291.850006 
	C618.380798,289.575378 620.772644,287.635040 623.218201,286.174530 
	C625.560730,284.775604 629.305847,285.398621 629.497742,281.264099 
	C631.029785,281.377014 633.334900,280.885986 633.970337,281.699402 
	C638.642090,287.679321 643.095825,293.843628 647.272949,300.177612 
	C647.782349,300.949951 646.611206,303.444733 645.567444,304.492096 
	C643.710999,306.354980 640.988892,307.401031 639.282593,309.358551 
	C635.196960,314.045807 629.299316,316.003448 622.198853,310.789581 
	C621.402954,310.205139 620.492920,309.776001 619.317932,309.137421 
	C619.000000,309.000000 619.004883,309.004883 618.977417,308.682953 
	C618.298523,307.572021 617.647095,306.783051 616.997803,305.996796 
	C617.000000,305.999512 617.004883,306.004639 617.004883,306.004639 
M629.697937,307.773621 
	C635.066895,306.660645 638.610474,302.807343 637.835388,298.924835 
	C636.856384,294.020416 631.553833,289.479523 627.697083,290.242767 
	C623.581360,291.057251 620.400879,296.367065 622.347412,300.867706 
	C623.502197,303.537628 626.718018,305.316162 629.697937,307.773621 
z"/>
<path fill="#F1F1F1" opacity="1.000000" stroke="none" 
	d="
M256.232544,296.806976 
	C260.162170,302.366394 263.865631,307.647583 267.557678,312.936646 
	C269.779968,316.120148 269.938293,318.307648 265.225830,319.156158 
	C263.766296,319.418945 262.341187,321.123444 261.345154,322.491730 
	C257.176514,328.218292 251.261749,329.780121 245.332520,326.091583 
	C240.111557,322.843658 234.755890,317.306854 237.128448,308.739990 
	C237.855148,306.116028 239.894424,303.526062 242.003922,301.693146 
	C245.040649,299.054474 250.286026,299.436066 251.936859,294.681274 
	C253.291748,295.298187 254.646652,295.915100 256.232544,296.806976 
M254.508224,321.211212 
	C255.609604,320.250397 256.973511,319.466583 257.763184,318.295593 
	C260.148010,314.759247 259.202576,310.781982 255.718964,307.163147 
	C252.819412,304.151001 249.184296,304.097351 246.202454,305.759949 
	C242.381805,307.890228 242.105286,312.114502 243.585602,315.885193 
	C245.335052,320.341461 248.858429,322.460693 254.508224,321.211212 
z"/>
<path fill="#F1F1F1" opacity="1.000000" stroke="none" 
	d="
M618.997559,308.997864 
	C619.051514,310.324463 618.789673,311.766205 619.214844,312.964081 
	C622.569153,322.415375 612.820740,330.238953 606.069946,330.968109 
	C599.099854,331.720947 590.278320,324.171875 590.122559,316.698364 
	C589.995911,310.625031 593.097839,305.967804 598.502869,303.016388 
	C603.479187,300.299103 608.337646,300.896942 613.059082,303.690857 
	C614.184570,304.356903 615.216980,305.180084 616.648560,305.967834 
	C617.004883,306.004639 617.000000,305.999512 617.003052,306.351990 
	C617.672424,307.471252 618.338623,308.238068 619.004883,309.004883 
	C619.004883,309.004883 619.000000,309.000000 618.997559,308.997864 
M610.482117,322.981903 
	C614.008423,320.204193 613.540283,316.493011 612.366333,312.988159 
	C611.011719,308.943848 607.524780,307.340485 603.604675,308.143738 
	C601.322815,308.611328 598.198669,310.122131 597.478210,311.958130 
	C596.075684,315.532013 596.674805,319.478699 599.934204,322.446411 
	C603.033936,325.268768 606.271057,325.897919 610.482117,322.981903 
z"/>
<path fill="#F1F1F1" opacity="1.000000" stroke="none" 
	d="
M211.999069,330.841492 
	C212.359772,322.334137 216.127502,317.215881 222.563309,316.065887 
	C230.210464,314.699463 236.616684,317.929352 239.765640,324.738922 
	C242.501556,330.655273 240.920975,337.594299 235.627197,341.802307 
	C226.957962,348.693542 212.948547,344.062531 211.999069,330.841492 
M234.820511,329.855682 
	C234.364746,328.616852 234.082642,327.275208 233.421326,326.158051 
	C231.254013,322.496643 225.446609,320.739410 222.089233,322.607056 
	C218.025024,324.867889 216.798737,329.578522 219.128036,333.666687 
	C220.961578,336.884705 223.326248,339.519653 227.332520,338.880035 
	C231.821884,338.163300 234.852341,335.634827 234.820511,329.855682 
z"/>
<path fill="#F1F1F1" opacity="1.000000" stroke="none" 
	d="
M229.403244,61.108593 
	C230.916611,67.680405 229.494827,72.802139 224.020126,76.653473 
	C219.142044,80.085121 214.259232,81.415070 208.723343,78.360130 
	C202.933395,75.164978 199.746460,68.180901 201.084930,61.383457 
	C202.191132,55.765648 207.988892,50.351910 214.241409,50.261776 
	C219.343597,50.188229 223.918381,52.390263 226.932465,56.901031 
	C227.759979,58.139473 228.438965,59.477158 229.403244,61.108593 
M215.989929,56.501171 
	C211.358383,55.733757 208.579727,58.737850 207.305725,62.192924 
	C205.831070,66.192207 207.466843,70.170242 211.296814,72.480431 
	C214.937454,74.676414 218.404114,74.282784 221.558792,71.011459 
	C226.120636,66.280968 224.050018,60.018139 215.989929,56.501171 
z"/>
<path fill="#F1F1F1" opacity="1.000000" stroke="none" 
	d="
M276.997559,20.997774 
	C277.965332,23.451197 279.274139,25.831409 279.841644,28.376890 
	C281.479706,35.724541 274.699554,43.863522 266.279114,44.954739 
	C259.294220,45.859924 251.621307,39.405586 250.980392,32.260273 
	C250.204666,23.611923 252.840240,19.596704 258.563446,17.014824 
	C264.794220,14.203972 271.260468,15.510873 276.695374,20.854233 
	C277.004211,21.005945 277.000000,21.000050 276.997559,20.997774 
M258.444244,34.767750 
	C259.825684,35.931217 261.083496,37.829605 262.617218,38.087547 
	C264.973877,38.483887 267.974396,38.493042 269.877869,37.324501 
	C272.632690,35.633308 274.787201,32.927368 273.507965,28.921553 
	C271.771027,23.482563 266.705750,20.581589 261.469635,22.334913 
	C257.094269,23.800014 255.901810,27.896412 258.444244,34.767750 
z"/>
<path fill="#F1F1F1" opacity="1.000000" stroke="none" 
	d="
M498.046265,112.522659 
	C511.195770,110.194519 515.122498,116.330605 518.921753,124.504364 
	C521.705872,130.494019 519.428223,136.119431 512.750793,141.730911 
	C508.362244,145.418884 501.897156,146.146271 496.958862,142.888199 
	C491.365448,139.197891 487.115967,133.990784 487.180725,127.100357 
	C487.244659,120.293686 491.287720,115.399635 498.046265,112.522659 
M508.958099,119.450027 
	C504.417175,113.966507 496.523712,116.166687 493.441711,122.267365 
	C490.957581,127.184616 493.561401,133.997269 499.028107,138.103455 
	C503.164642,141.210510 506.859924,140.080704 510.471771,137.669434 
	C513.900269,135.380600 515.923767,132.140030 514.074585,127.927780 
	C512.851501,125.141731 511.034271,122.616486 508.958099,119.450027 
z"/>
<path fill="#F1F1F1" opacity="1.000000" stroke="none" 
	d="
M586.998291,56.211998 
	C587.353943,48.534912 592.470886,45.072720 598.178162,42.575489 
	C603.631165,40.189518 609.681213,42.523872 614.511047,48.016068 
	C619.385498,53.559166 620.632507,62.734398 617.133362,67.310875 
	C611.574707,74.580933 604.193604,77.248131 597.166077,73.380402 
	C590.897949,69.930634 586.311890,64.691040 586.998291,56.211998 
M592.115906,54.117981 
	C592.106628,55.609074 591.903198,57.129280 592.121704,58.586201 
	C593.057190,64.824257 601.818542,73.067192 608.534607,69.053833 
	C612.793335,66.508896 614.684204,63.177849 613.892761,58.356201 
	C612.983337,52.815151 608.530212,47.758785 604.041260,47.023022 
	C598.738586,46.153881 595.482239,47.920448 592.115906,54.117981 
z"/>
<path fill="#F0F0F0" opacity="1.000000" stroke="none" 
	d="
M197.977936,101.782845 
	C195.609848,102.149246 193.297485,102.135429 190.554398,102.167114 
	C185.192139,99.524391 180.240082,96.872787 175.340134,94.128143 
	C173.619247,93.164192 171.506317,92.313675 170.508636,90.795944 
	C169.306641,88.967377 167.903717,85.514847 168.727737,84.495903 
	C170.197342,82.678696 173.830566,80.691536 175.579727,81.355469 
	C182.796661,84.094841 189.799194,87.524445 196.575134,91.255058 
	C200.917892,93.646057 200.930786,97.525902 197.977936,101.782845 
z"/>
<path fill="#F1F1F1" opacity="1.000000" stroke="none" 
	d="
M522.414856,95.392883 
	C524.571167,96.185028 526.495911,97.001656 528.212036,98.134377 
	C535.782898,103.131393 543.293640,108.219505 551.297241,113.590775 
	C549.704468,114.923561 548.511292,115.921906 547.388672,116.861282 
	C539.596863,111.970840 537.955994,111.978180 531.598755,118.439445 
	C530.354309,119.704193 530.101990,122.742470 530.549500,124.697868 
	C531.330200,128.109283 529.841125,129.177124 526.638000,130.083496 
	C524.096863,120.180420 521.448608,110.566605 519.325928,100.838112 
	C519.001526,99.351311 521.106140,97.334526 522.414856,95.392883 
M531.547607,106.014877 
	C529.589966,104.781731 527.632324,103.548576 525.674744,102.315430 
	C525.360718,102.632248 525.046692,102.949074 524.732666,103.265900 
	C525.849609,107.170738 526.966614,111.075577 528.171326,115.287071 
	C536.323120,109.742355 536.323120,109.742355 531.547607,106.014877 
z"/>
<path fill="#F1F1F1" opacity="1.000000" stroke="none" 
	d="
M562.953613,84.925682 
	C557.789612,77.266579 559.081909,69.824661 566.329407,64.185638 
	C572.238953,59.587654 578.254761,59.761505 583.530029,65.685631 
	C581.131531,65.987747 579.347778,66.661461 577.780212,66.325851 
	C573.040039,65.311035 569.110596,66.268082 566.404968,70.386627 
	C563.792419,74.363335 564.785034,78.355797 567.078552,82.123863 
	C571.427612,89.269012 577.661011,91.335144 583.025452,86.751457 
	C584.989441,85.073288 585.291138,81.485275 586.446289,78.809586 
	C587.001404,77.523994 587.777832,76.333961 588.453979,75.100647 
	C589.429932,75.975296 591.352356,77.034126 591.223999,77.693871 
	C590.532410,81.247864 590.240356,85.426590 588.142029,88.060875 
	C580.819092,97.254440 570.591125,95.886208 562.953613,84.925682 
z"/>
<path fill="#F2EDEC" opacity="1.000000" stroke="none" 
	d="
M457.982300,156.349548 
	C452.786133,156.882431 447.530518,157.084366 441.682465,157.698822 
	C434.220276,163.066025 434.523743,170.667572 441.763306,174.976318 
	C441.805695,177.039169 441.848083,179.102005 441.806030,181.600433 
	C434.384583,179.073090 428.711273,167.507492 431.520477,161.240051 
	C435.562012,152.223129 446.274536,148.191040 454.349152,152.763626 
	C455.716370,153.537857 456.740326,154.918259 457.982300,156.349548 
z"/>
<path fill="#F1F1F1" opacity="1.000000" stroke="none" 
	d="
M474.552734,158.952515 
	C474.951996,160.386444 475.004211,161.784882 474.978333,163.597168 
	C464.008575,162.790192 454.458130,147.604202 463.170288,136.584045 
	C468.229675,130.184402 477.482880,129.059128 483.376190,135.429062 
	C481.188141,135.964691 479.257629,137.116486 477.846313,136.660690 
	C472.767944,135.020584 469.002441,136.441315 466.208557,140.699570 
	C463.971893,144.108551 464.667511,150.536453 467.937531,154.227722 
	C469.632111,156.140594 472.091736,157.375717 474.552734,158.952515 
z"/>
<path fill="#F1F1F1" opacity="1.000000" stroke="none" 
	d="
M807.187256,186.248352 
	C805.502014,187.330093 804.102234,188.185791 802.102173,189.408432 
	C796.050293,180.890289 790.081238,172.488800 783.775452,163.613312 
	C785.317566,162.646683 786.616943,161.832184 788.204895,160.836807 
	C793.481506,168.306808 798.527283,175.450119 803.748962,182.842407 
	C808.392944,179.781601 812.982422,176.756699 817.684448,173.657639 
	C819.300781,178.177063 819.300781,178.177063 807.187256,186.248352 
z"/>
<path fill="#F1F1F1" opacity="1.000000" stroke="none" 
	d="
M197.355164,70.623184 
	C200.458618,74.922859 203.597610,78.778984 206.135483,82.996811 
	C206.907761,84.280296 206.022934,86.560898 205.897064,88.384819 
	C204.360245,87.847687 202.194885,87.780128 201.386826,86.698540 
	C195.365387,78.638794 189.498291,70.454826 183.901611,62.096359 
	C183.077911,60.866173 183.936752,58.509384 184.017136,56.673851 
	C185.672302,57.288349 187.910172,57.426388 188.874527,58.605759 
	C191.894440,62.298954 194.434067,66.384850 197.355164,70.623184 
z"/>
<path fill="#F0EDEC" opacity="1.000000" stroke="none" 
	d="
M185.959839,103.978470 
	C177.294159,109.493813 168.488205,114.661140 159.338898,119.888153 
	C157.779419,114.717789 160.715195,111.698982 164.667633,109.163353 
	C168.267563,106.853882 171.808609,104.452759 175.381882,102.101585 
	C180.384445,98.809975 181.701416,99.006462 185.959839,103.978470 
z"/>
<path fill="#F2EDEC" opacity="1.000000" stroke="none" 
	d="
M412.618866,190.042755 
	C412.544769,187.618881 412.470703,185.195023 412.563324,182.340210 
	C415.589844,185.131500 418.696747,188.170685 421.251770,191.618790 
	C425.108337,196.823257 424.951660,196.955063 430.436462,193.310699 
	C432.359528,192.032913 434.114563,190.418472 436.181335,189.469589 
	C437.601624,188.817474 439.426971,189.047577 441.416504,188.927750 
	C441.815308,189.737747 441.868896,190.503372 441.501099,191.688217 
	C436.657959,194.984299 432.038452,197.605057 427.876129,200.818039 
	C424.469421,203.447678 422.453674,202.644592 420.208221,199.492020 
	C417.868469,196.206940 415.163940,193.181625 412.618866,190.042755 
z"/>
<path fill="#F1F1F1" opacity="1.000000" stroke="none" 
	d="
M270.996094,298.961578 
	C273.060242,301.782257 275.371582,304.082123 276.712158,306.851807 
	C277.387726,308.247620 276.302795,310.495575 276.013977,312.358185 
	C274.494659,311.830078 272.362244,311.763092 271.559631,310.695953 
	C267.591858,305.420319 263.846039,299.961517 260.340576,294.367645 
	C259.602722,293.190216 260.202484,291.174500 260.185913,289.545074 
	C261.817444,289.894073 264.005615,289.704468 264.968994,290.700012 
	C267.237457,293.044281 268.921539,295.953979 270.996094,298.961578 
z"/>
<path fill="#F1F1F1" opacity="1.000000" stroke="none" 
	d="
M640.317383,282.559875 
	C637.079773,277.398193 637.090454,277.303223 641.958862,273.607330 
	C646.587524,280.382019 651.304993,287.058899 655.677185,293.954742 
	C656.269226,294.888397 655.128723,296.920532 654.790466,298.444031 
	C653.372925,297.970795 651.400146,297.931702 650.632812,296.950134 
	C647.076660,292.401398 643.855164,287.591064 640.317383,282.559875 
z"/>
<path fill="#F1F1F1" opacity="1.000000" stroke="none" 
	d="
M542.641052,95.369026 
	C541.068420,93.009506 539.467285,91.062675 538.405212,88.856377 
	C537.830383,87.662193 538.175110,86.025322 538.104980,84.588165 
	C539.513000,85.034523 541.502258,85.039650 542.232178,86.000946 
	C546.119812,91.121231 549.710815,96.468018 553.364868,101.763741 
	C554.938965,104.044998 556.417664,106.392090 558.051147,108.879028 
	C555.610352,111.233978 553.908752,111.564697 551.976074,108.599136 
	C549.097107,104.181564 545.899292,99.971809 542.641052,95.369026 
z"/>
<path fill="#F2EEED" opacity="1.000000" stroke="none" 
	d="
M491.960876,156.741394 
	C489.891022,157.018829 487.848236,156.903625 485.377960,156.682220 
	C487.011688,153.008743 489.791992,149.395493 484.092438,146.197861 
	C482.174225,147.413925 480.151733,148.696106 478.123077,149.982193 
	C475.860107,146.318405 475.860107,146.318405 485.885223,139.317383 
	C491.944214,143.549835 493.826019,148.801590 491.960876,156.741394 
z"/>
<path fill="#F1F1F1" opacity="1.000000" stroke="none" 
	d="
M156.632935,77.792313 
	C159.354080,73.445587 162.759659,74.331055 165.702194,76.412636 
	C168.653198,78.500198 168.330338,82.366394 165.509857,84.940750 
	C162.680725,87.523003 159.553207,87.578690 157.393967,84.574524 
	C156.273300,83.015358 156.714371,80.333717 156.632935,77.792313 
z"/>
<path fill="#F1F1F1" opacity="1.000000" stroke="none" 
	d="
M459.407715,177.964035 
	C458.987915,171.976669 458.925323,165.943100 458.960480,159.448547 
	C465.278320,162.545319 465.659790,172.762619 459.407715,177.964035 
z"/>
<path fill="#F1F1F1" opacity="1.000000" stroke="none" 
	d="
M635.855835,266.159973 
	C636.961182,267.769318 638.063171,269.286255 638.239502,270.904022 
	C638.298218,271.443573 635.891479,272.891693 634.787720,272.729248 
	C633.781372,272.581116 632.095703,270.493225 632.328918,269.827576 
	C632.830994,268.394043 634.374084,267.325104 635.855835,266.159973 
z"/>
<path fill="#F1F1F1" opacity="1.000000" stroke="none" 
	d="
M259.260559,281.875305 
	C258.713104,283.705658 257.941559,285.250824 257.169983,286.795990 
	C255.953278,286.142578 254.474335,285.717560 253.625763,284.743469 
	C253.172241,284.222839 253.622879,281.935272 253.980392,281.855408 
	C255.604492,281.492767 257.340607,281.631653 259.260559,281.875305 
z"/>
<path fill="#F1F1F1" opacity="1.000000" stroke="none" 
	d="
M561.380005,102.479126 
	C560.739014,99.453072 561.723572,97.626480 564.565552,98.239700 
	C565.759399,98.497284 567.686218,100.803665 567.437439,101.370796 
	C566.281128,104.007774 564.191223,105.082222 561.380005,102.479126 
z"/>
<path fill="#FFFFFF" opacity="1.000000" stroke="none" 
	d="
M194.736572,341.868713 
	C197.810593,338.837219 200.999191,337.983398 204.399597,340.275726 
	C207.647415,342.465149 210.775696,345.490540 209.406952,349.553650 
	C208.509262,352.218353 205.686600,355.376556 203.152969,356.005646 
	C200.916718,356.560913 197.417801,354.443176 195.315994,352.565765 
	C192.108704,349.700958 192.213699,345.849091 194.736572,341.868713 
z"/>
<path fill="#FEFEFE" opacity="1.000000" stroke="none" 
	d="
M551.948242,342.888977 
	C557.375122,341.852783 561.312988,344.053162 562.714050,348.601898 
	C564.190613,353.395752 562.120117,358.043884 557.835693,359.553345 
	C554.602478,360.692444 549.875427,358.168091 547.784180,354.185547 
	C545.610474,350.045990 547.047852,345.802246 551.948242,342.888977 
z"/>
<path fill="#FEFEFE" opacity="1.000000" stroke="none" 
	d="
M290.602966,5.007353 
	C295.651245,6.350083 297.818634,9.943829 297.760742,14.258214 
	C297.731262,16.454977 295.959229,19.337202 294.090027,20.641228 
	C290.960449,22.824554 287.624298,21.690002 284.645721,19.214258 
	C281.044556,16.221016 281.425507,12.315716 282.433075,8.742631 
	C283.428589,5.212357 286.802551,4.612468 290.602966,5.007353 
z"/>
<path fill="#FFFDFC" opacity="1.000000" stroke="none" 
	d="
M613.051575,189.077728 
	C613.674866,181.008835 616.529602,174.730728 624.156738,171.861710 
	C630.508911,169.472290 636.513672,170.386078 641.845764,174.830872 
	C647.797119,179.791916 649.655090,190.701859 645.953308,199.241211 
	C642.978088,206.104507 636.130127,209.828308 628.045471,208.979172 
	C619.608582,208.093048 613.945374,200.746979 613.051575,189.077728 
z"/>
<path fill="#FFFDFC" opacity="1.000000" stroke="none" 
	d="
M412.506317,190.427002 
	C415.163940,193.181625 417.868469,196.206940 420.208221,199.492020 
	C422.453674,202.644592 424.469421,203.447678 427.876129,200.818039 
	C432.038452,197.605057 436.657959,194.984299 441.417847,192.065170 
	C441.928040,200.593643 439.093292,205.992111 433.142639,208.425797 
	C427.786560,210.616318 420.330719,209.189835 416.470306,205.253616 
	C412.474518,201.179382 412.596771,195.951416 412.506317,190.427002 
z"/>
<path fill="#FEFEFE" opacity="1.000000" stroke="none" 
	d="
M441.827332,174.514114 
	C434.523743,170.667572 434.220276,163.066025 441.428406,158.067184 
	C441.808289,163.365982 441.849823,168.708954 441.827332,174.514114 
z"/>
<path fill="#FEFEFE" opacity="1.000000" stroke="none" 
	d="
M241.391357,39.281597 
	C246.411987,41.509468 248.469284,45.082516 248.010849,50.181049 
	C247.571915,55.062809 242.240509,58.087952 237.799042,55.911411 
	C233.875992,53.988922 231.114914,49.092167 232.145569,45.264660 
	C233.335861,40.844326 236.287872,38.600803 241.391357,39.281597 
z"/>
<path fill="#FFFFFF" opacity="1.000000" stroke="none" 
	d="
M577.778076,341.750763 
	C575.603882,339.010986 572.838318,336.619507 572.214355,333.760651 
	C571.180176,329.021637 574.872620,325.150543 579.301514,325.019379 
	C583.661377,324.890228 587.874084,329.312927 588.001709,334.153381 
	C588.139771,339.392792 585.921143,341.767151 580.634583,341.992493 
	C579.809021,342.027679 578.977661,341.926971 577.778076,341.750763 
z"/>
<path fill="#FEFEFE" opacity="1.000000" stroke="none" 
	d="
M629.352539,307.634552 
	C626.718018,305.316162 623.502197,303.537628 622.347412,300.867706 
	C620.400879,296.367065 623.581360,291.057251 627.697083,290.242767 
	C631.553833,289.479523 636.856384,294.020416 637.835388,298.924835 
	C638.610474,302.807343 635.066895,306.660645 629.352539,307.634552 
z"/>
<path fill="#FFFFFF" opacity="1.000000" stroke="none" 
	d="
M618.977417,308.682953 
	C618.338623,308.238068 617.672424,307.471252 617.000916,306.349243 
	C617.647095,306.783051 618.298523,307.572021 618.977417,308.682953 
z"/>
<path fill="#FEFEFE" opacity="1.000000" stroke="none" 
	d="
M254.163544,321.383331 
	C248.858429,322.460693 245.335052,320.341461 243.585602,315.885193 
	C242.105286,312.114502 242.381805,307.890228 246.202454,305.759949 
	C249.184296,304.097351 252.819412,304.151001 255.718964,307.163147 
	C259.202576,310.781982 260.148010,314.759247 257.763184,318.295593 
	C256.973511,319.466583 255.609604,320.250397 254.163544,321.383331 
z"/>
<path fill="#FEFEFE" opacity="1.000000" stroke="none" 
	d="
M610.177490,323.233704 
	C606.271057,325.897919 603.033936,325.268768 599.934204,322.446411 
	C596.674805,319.478699 596.075684,315.532013 597.478210,311.958130 
	C598.198669,310.122131 601.322815,308.611328 603.604675,308.143738 
	C607.524780,307.340485 611.011719,308.943848 612.366333,312.988159 
	C613.540283,316.493011 614.008423,320.204193 610.177490,323.233704 
z"/>
<path fill="#FEFEFE" opacity="1.000000" stroke="none" 
	d="
M234.880142,330.242676 
	C234.852341,335.634827 231.821884,338.163300 227.332520,338.880035 
	C223.326248,339.519653 220.961578,336.884705 219.128036,333.666687 
	C216.798737,329.578522 218.025024,324.867889 222.089233,322.607056 
	C225.446609,320.739410 231.254013,322.496643 233.421326,326.158051 
	C234.082642,327.275208 234.364746,328.616852 234.880142,330.242676 
z"/>
<path fill="#FEFEFE" opacity="1.000000" stroke="none" 
	d="
M216.336700,56.647106 
	C224.050018,60.018139 226.120636,66.280968 221.558792,71.011459 
	C218.404114,74.282784 214.937454,74.676414 211.296814,72.480431 
	C207.466843,70.170242 205.831070,66.192207 207.305725,62.192924 
	C208.579727,58.737850 211.358383,55.733757 216.336700,56.647106 
z"/>
<path fill="#FEFEFE" opacity="1.000000" stroke="none" 
	d="
M258.246277,34.427856 
	C255.901810,27.896412 257.094269,23.800014 261.469635,22.334913 
	C266.705750,20.581589 271.771027,23.482563 273.507965,28.921553 
	C274.787201,32.927368 272.632690,35.633308 269.877869,37.324501 
	C267.974396,38.493042 264.973877,38.483887 262.617218,38.087547 
	C261.083496,37.829605 259.825684,35.931217 258.246277,34.427856 
z"/>
<path fill="#FFFFFF" opacity="1.000000" stroke="none" 
	d="
M509.220581,119.712250 
	C511.034271,122.616486 512.851501,125.141731 514.074585,127.927780 
	C515.923767,132.140030 513.900269,135.380600 510.471771,137.669434 
	C506.859924,140.080704 503.164642,141.210510 499.028107,138.103455 
	C493.561401,133.997269 490.957581,127.184616 493.441711,122.267365 
	C496.523712,116.166687 504.417175,113.966507 509.220581,119.712250 
z"/>
<path fill="#FFFFFF" opacity="1.000000" stroke="none" 
	d="
M592.243286,53.736164 
	C595.482239,47.920448 598.738586,46.153881 604.041260,47.023022 
	C608.530212,47.758785 612.983337,52.815151 613.892761,58.356201 
	C614.684204,63.177849 612.793335,66.508896 608.534607,69.053833 
	C601.818542,73.067192 593.057190,64.824257 592.121704,58.586201 
	C591.903198,57.129280 592.106628,55.609074 592.243286,53.736164 
z"/>
<path fill="#FEFEFE" opacity="1.000000" stroke="none" 
	d="
M531.828247,106.247452 
	C536.323120,109.742355 536.323120,109.742355 528.171326,115.287071 
	C526.966614,111.075577 525.849609,107.170738 524.732666,103.265900 
	C525.046692,102.949074 525.360718,102.632248 525.674744,102.315430 
	C527.632324,103.548576 529.589966,104.781731 531.828247,106.247452 
z"/>
</svg>